<svg xmlns="http://www.w3.org/2000/svg" xmlns:xlink="http://www.w3.org/1999/xlink" version="1.1" viewBox="60 0 520 760">
<g transform="matrix(1 0 0 -1 0 760)">
<path fill="#c00" d="
M100 155c0 55 45 100 100 100s100 -45 100 -100s-45 -100 -100 -100s-100 45 -100 100z
M100 605c0 55 45 100 100 100s100 -45 100 -100s-45 -100 -100 -100s-100 45 -100 100z
M120 155c0 -44 36 -80 80 -80s80 36 80 80s-36 80 -80 80s-80 -36 -80 -80z
M120 605c0 -44 36 -80 80 -80s80 36 80 80s-36 80 -80 80s-80 -36 -80 -80z
M130 155c0 39 31 70 70 70s70 -31 70 -70s-31 -70 -70 -70s-70 31 -70 70z
M130 605c0 39 31 70 70 70s70 -31 70 -70s-31 -70 -70 -70s-70 31 -70 70z
M140 151l9 -7l19 6l2 4c0 13 5 17 7 24l-11 16h-12c-9 -11 -14 -24 -14 -39v-4z
M140 601l9 -7l19 6l2 4c0 13 5 17 7 24l-11 16h-12c-9 -11 -14 -24 -14 -39v-4z
M149 123c8 -13 21 -22 37 -26l9 6v20l-3 3c-7 2 -13 6 -17 12l-4 2l-18 -6z
M149 573c8 -13 21 -22 37 -26l9 6v20l-3 3c-7 2 -13 6 -17 12l-4 2l-18 -6z
M174 200l11 -16h4c4 1 7 1 11 1s7 0 11 -1h4l11 16l-4 11c-6 2 -14 4 -22 4s-16 -2 -22 -4z
M174 650l11 -16h4c4 1 7 1 11 1s7 0 11 -1h4l11 16l-4 11c-6 2 -14 4 -22 4s-16 -2 -22 -4z
M180 155c0 -11 9 -20 20 -20s20 9 20 20s-9 20 -20 20s-20 -9 -20 -20z
M180 605c0 -11 9 -20 20 -20s20 9 20 20s-9 20 -20 20s-20 -9 -20 -20z
M190 155c0 6 4 10 10 10s10 -4 10 -10s-4 -10 -10 -10s-10 4 -10 10z
M190 605c0 6 4 10 10 10s10 -4 10 -10s-4 -10 -10 -10s-10 4 -10 10z
M205 103l9 -6c16 4 29 13 37 26l-4 11l-18 6c-7 -6 -15 -13 -24 -17v-20z
M205 553l9 -6c16 4 29 13 37 26l-4 11l-18 6c-7 -6 -15 -13 -24 -17v-20z
M220 380c0 55 45 100 100 100s100 -45 100 -100s-45 -100 -100 -100s-100 45 -100 100z
M223 178c2 -7 7 -11 7 -24l2 -4l19 -6l9 7v4c0 15 -5 28 -14 39h-12z
M223 628c2 -7 7 -11 7 -24l2 -4l19 -6l9 7v4c0 15 -5 28 -14 39h-12z
M240 380c0 -44 36 -80 80 -80s80 36 80 80s-36 80 -80 80s-80 -36 -80 -80z
M340 155c0 55 45 100 100 100s100 -45 100 -100s-45 -100 -100 -100s-100 45 -100 100z
M340 605c0 55 45 100 100 100s100 -45 100 -100s-45 -100 -100 -100s-100 45 -100 100z
M360 155c0 -44 36 -80 80 -80s80 36 80 80s-36 80 -80 80s-80 -36 -80 -80z
M360 605c0 -44 36 -80 80 -80s80 36 80 80s-36 80 -80 80s-80 -36 -80 -80z
M370 155c0 39 31 70 70 70s70 -31 70 -70s-31 -70 -70 -70s-70 31 -70 70z
M370 605c0 39 31 70 70 70s70 -31 70 -70s-31 -70 -70 -70s-70 31 -70 70z
M380 151l9 -7l19 6l2 4c0 13 5 17 7 24l-11 16h-12c-9 -11 -14 -24 -14 -39v-4z
M380 601l9 -7l19 6l2 4c0 13 5 17 7 24l-11 16h-12c-9 -11 -14 -24 -14 -39v-4z
M389 123c8 -13 21 -22 37 -26l9 6v20l-3 3c-7 2 -13 6 -17 12l-4 2l-18 -6z
M389 573c8 -13 21 -22 37 -26l9 6v20l-3 3c-7 2 -13 6 -17 12l-4 2l-18 -6z
M414 200l11 -16h4c4 1 7 1 11 1s7 0 11 -1h4l11 16l-4 11c-6 2 -14 4 -22 4s-16 -2 -22 -4z
M414 650l11 -16h4c4 1 7 1 11 1s7 0 11 -1h4l11 16l-4 11c-6 2 -14 4 -22 4s-16 -2 -22 -4z
M420 155c0 -11 9 -20 20 -20s20 9 20 20s-9 20 -20 20s-20 -9 -20 -20z
M420 605c0 -11 9 -20 20 -20s20 9 20 20s-9 20 -20 20s-20 -9 -20 -20z
M430 155c0 6 4 10 10 10s10 -4 10 -10s-4 -10 -10 -10s-10 4 -10 10z
M430 605c0 6 4 10 10 10s10 -4 10 -10s-4 -10 -10 -10s-10 4 -10 10z
M445 103l9 -6c16 4 29 13 37 26l-4 11l-18 6c-7 -6 -15 -13 -24 -17v-20z
M445 553l9 -6c16 4 29 13 37 26l-4 11l-18 6c-7 -6 -15 -13 -24 -17v-20z
M463 178c2 -7 7 -11 7 -24l2 -4l19 -6l9 7v4c0 15 -5 28 -14 39h-12z
M463 628c2 -7 7 -11 7 -24l2 -4l19 -6l9 7v4c0 15 -5 28 -14 39h-12z
" />
<path fill="#c00" d="
M250 380c0 39 31 70 70 70s70 -31 70 -70s-31 -70 -70 -70s-70 31 -70 70z
M260 376l9 -7l19 6l2 4c0 13 5 17 7 24l-11 16h-12c-9 -11 -14 -24 -14 -39v-4z
M269 348c8 -13 21 -22 37 -26l9 6v20l-3 3c-7 2 -13 6 -17 12l-4 2l-18 -6z
M294 425l11 -16h4c4 1 7 1 11 1s7 0 11 -1h4l11 16l-4 11c-6 2 -14 4 -22 4s-16 -2 -22 -4z
M300 380c0 -11 9 -20 20 -20s20 9 20 20s-9 20 -20 20s-20 -9 -20 -20z
M310 380c0 6 4 10 10 10s10 -4 10 -10s-4 -10 -10 -10s-10 4 -10 10z
M325 328l9 -6c16 4 29 13 37 26l-4 11l-18 6c-7 -6 -15 -13 -24 -17v-20z
M343 403c2 -7 7 -11 7 -24l2 -4l19 -6l9 7v4c0 15 -5 28 -14 39h-12z
" />
<circle stroke="none" fill="#c00" cx="500" cy="380" r="30"></circle>
</g>
</svg>
