<svg xmlns="http://www.w3.org/2000/svg" xmlns:xlink="http://www.w3.org/1999/xlink" version="1.1" viewBox="60 0 520 760">
<g transform="matrix(1 0 0 -1 0 760)">
<path fill="#009" d="
M86 380c0 129 105 234 234 234s234 -105 234 -234s-105 -234 -234 -234s-234 105 -234 234z
M106 380c0 -118 96 -214 214 -214s214 96 214 214s-96 214 -214 214s-214 -96 -214 -214z
M116 380c0 113 91 204 204 204s204 -91 204 -204s-91 -204 -204 -204s-204 91 -204 204z
M122 353l6 -27l26 -10l20 8c-6 14 -9 29 -10 44l-7 7h-23l15 -31z
M122 407l27 9l-15 -31h23l7 7c1 15 4 30 10 44l-20 8l-26 -10z
M145 284c7 -13 16 -25 26 -36l9 -2l17 17l-30 18l25 7c-15 24 -9 20 -18 26l-21 -9z
M145 476l8 -21l21 -9l5 3c4 8 8 15 13 23l-25 7l30 18l-17 17l-11 -3c-9 -11 -17 -23 -24 -35z
M168 380c0 -84 68 -152 152 -152s152 68 152 152s-68 152 -152 152s-152 -68 -152 -152z
M186 240l3 -11c11 -9 23 -17 35 -24l21 8l9 21l-3 5c-8 4 -15 8 -23 13l-7 -25l-18 30z
M186 520l17 -17l18 30l7 -25c24 15 20 9 26 18l-9 21l-21 8c-13 -7 -25 -16 -36 -26z
M256 214l10 -26l27 -6l-9 27l31 -15v23l-7 7c-15 1 -30 4 -44 10z
M256 546l8 -20c14 6 29 9 44 10l7 7v23l-31 -15l9 27l-27 -6z
M325 194l31 15l-9 -27l27 6l10 26l-8 20c-14 -6 -29 -9 -44 -10l-7 -7v-23z
M325 543l7 -7c15 -1 30 -4 44 -10l8 20l-10 26l-27 6l9 -27l-31 15v-23z
M386 234l9 -21l21 -8c13 7 25 16 36 26l2 9l-17 17l-18 -30l-7 25c-24 -15 -20 -9 -26 -18z
M386 526l3 -5c8 -4 15 -8 23 -13l7 25l18 -30l17 17l-3 11c-11 9 -23 17 -35 24l-21 -8z
M443 263l17 -17l11 3c9 11 17 23 24 35l-8 21l-21 9l-5 -3c-4 -8 -8 -15 -13 -23l25 -7z
M443 497l30 -18l-25 -7c15 -24 9 -20 18 -26l21 9l8 21c-7 13 -16 25 -26 36l-9 2z
M466 324l20 -8l26 10l6 27l-27 -9l15 31h-23l-7 -7c-1 -15 -4 -30 -10 -44z
M466 436c6 -14 9 -29 10 -44l7 -7h23l-15 31l27 -9l-6 27l-26 10z
" />
<path fill="#c00" d="
M178 380c0 79 63 142 142 142s142 -63 142 -142s-63 -142 -142 -142s-142 63 -142 142z
M181 352l25 -17l56 23c-1 3 -2 5 -2 8l-37 -8l-1 5l37 7c-1 2 -1 5 -1 8h-60z
M181 408l17 -26h60c0 3 0 6 1 8l-37 7l1 5l37 -8c0 3 1 5 2 8l-56 23z
M202 301l30 -6l42 43c-1 2 -2 4 -4 6l-32 -21l-3 4l33 21c-2 2 -3 4 -4 6l-56 -22z
M202 459l6 -31l56 -22c1 2 2 4 4 6l-33 21l3 4l32 -21c2 2 3 4 4 6l-42 43z
M235 292l6 -30l31 6l22 56c-2 1 -4 2 -6 4l-21 -33l-4 3l21 32c-2 2 -4 3 -6 4z
M235 468l43 -42c2 1 4 2 6 4l-21 32l4 3l21 -33c2 2 4 3 6 4l-22 56l-31 6z
M263 380c0 -31 26 -57 57 -57s57 26 57 57s-26 57 -57 57s-57 -26 -57 -57z
M272 375v5c0 12 5 23 13 31l7 -1l17 -21c-2 -3 -3 -6 -3 -9l-26 -9z
M275 266l17 -25l26 17v60c-3 0 -6 0 -8 1l-7 -37l-5 1l8 37c-3 0 -5 1 -8 2z
M275 494l23 -56c3 1 5 2 8 2l-8 37l5 1l7 -37c2 1 5 1 8 1v60l-26 17z
M279 356l4 7l26 8c1 -1 3 -3 6 -4v-28l-5 -6c-14 3 -24 12 -31 23z
M300 416l1 8c6 3 12 4 19 4s13 -1 19 -4l1 -8l-16 -23c-1 1 -3 1 -4 1s-3 0 -4 -1z
M315 380c0 3 2 5 5 5s5 -2 5 -5s-2 -5 -5 -5s-5 2 -5 5z
M322 258l26 -17l17 25l-23 56c-3 -1 -5 -2 -8 -2l8 -37l-5 -1l-7 37c-2 -1 -5 -1 -8 -1v-60z
M322 442c3 0 6 0 8 -1l7 37l5 -1l-8 -37c3 0 5 -1 8 -2l23 56l-17 25l-26 -17v-60z
M325 339v28c3 1 5 3 6 4l26 -8l4 -7c-7 -11 -17 -20 -31 -23z
M331 389l17 21l7 1c8 -8 13 -19 13 -31v-5l-8 -4l-26 9c0 3 -1 6 -3 9z
M346 324l22 -56l31 -6l6 30l-43 42c-2 -1 -4 -2 -6 -4l21 -32l-4 -3l-21 33c-2 -2 -4 -3 -6 -4z
M346 436c2 -1 4 -2 6 -4l21 33l4 -3l-21 -32c2 -2 4 -3 6 -4l43 42l-6 30l-31 -6z
M366 338l42 -43l30 6l-6 31l-56 22c-1 -2 -2 -4 -4 -6l33 -21l-3 -4l-32 21c-2 -2 -3 -4 -4 -6z
M366 422c1 -2 2 -4 4 -6l32 21l3 -4l-33 -21c2 -2 3 -4 4 -6l56 22l6 31l-30 6z
M378 358l56 -23l25 17l-17 26h-60c0 -3 0 -6 -1 -8l37 -7l-1 -5l-37 8c0 -3 -1 -5 -2 -8z
M378 402c1 -3 2 -5 2 -8l37 8l1 -5l-37 -7c1 -2 1 -5 1 -8h60l17 26l-25 17z
" />
</g>
</svg>
