<svg xmlns="http://www.w3.org/2000/svg" xmlns:xlink="http://www.w3.org/1999/xlink" version="1.1" viewBox="60 0 520 760">
<g transform="matrix(1 0 0 -1 0 760)">
<path fill="#060" d="
M103 164c0 63 52 108 88 108c15 0 25 -6 30 -6c2 0 5 0 5 3c0 2 -6 7 -6 9c0 4 0 6 2 6c4 0 14 -15 14 -40l-1 -36c0 -24 5 -36 22 -36c8 0 16 3 24 6c9 4 19 8 31 8c5 0 9 -1 13 -1c12 0 17 13 17 23s-16 21 -26 21c-11 0 -18 -9 -25 -19c-7 -8 -14 -17 -23 -17c-12 0 -17 14 -17 26c0 10 3 20 6 29c2 9 5 19 5 28c0 30 -24 23 -24 28c0 1 4 2 6 2c18 0 22 -22 30 -22c7 0 17 36 58 36c35 0 41 -38 49 -38s16 9 55 9c35 0 100 -43 100 -113c0 -15 -3 -18 -3 -18c-3 0 -11 1 -22 3c-20 4 -51 9 -77 9c-63 0 -55 -2 -78 -2c-9 0 -18 2 -27 4c-8 1 -16 3 -23 3c-11 0 -28 -13 -46 -13c-5 0 -13 1 -20 2c-9 2 -19 3 -26 3c-14 0 -62 0 -109 -18c-1 3 -2 9 -2 13z
M117 170c0 -2 1 -4 5 -4s36 7 36 13c0 3 -5 4 -12 4c-20 0 -29 -8 -29 -13z
M124 197c0 -4 6 -5 10 -5c11 0 27 6 27 9s-6 5 -12 5c-12 0 -25 -4 -25 -9z
M131 475c0 3 0 4 3 4c2 0 9 -6 17 -14c11 -10 25 -23 31 -23c2 0 3 1 3 3c0 6 -26 18 -42 42c-7 9 -5 15 -3 15s9 -7 17 -16c11 -12 24 -27 31 -27c1 0 2 1 2 2c0 2 -8 11 -16 21c-14 15 -30 33 -30 41c0 1 0 3 2 3s9 -8 17 -18c12 -14 27 -31 35 -31c1 0 1 2 1 2c0 2 -6 8 -13 16c-15 16 -37 40 -37 53c0 2 0 2 1 2c3 0 12 -11 22 -24c13 -16 27 -35 33 -35c2 0 3 0 3 2c0 4 -13 20 -27 36c-13 15 -26 30 -30 38c-3 5 -2 11 1 11c2 0 10 -10 19 -21c13 -17 29 -38 36 -38c1 0 2 0 2 1c0 5 -18 21 -25 30c-38 52 -44 65 -44 74c0 2 2 3 4 3c3 0 15 -17 27 -37c17 -27 37 -57 45 -57c1 0 2 0 2 2c0 4 -9 15 -19 29c-16 21 -36 47 -36 59c0 3 2 3 3 3c2 0 12 -15 23 -31c15 -23 33 -49 38 -49c1 0 2 0 2 1c0 4 -12 21 -24 38c-13 18 -26 37 -26 42c0 2 1 3 3 3c5 0 15 -18 25 -35c10 -16 19 -32 23 -32c2 0 2 1 2 2c0 3 -4 10 -9 19c-6 11 -14 25 -14 31c0 4 1 5 2 5c3 0 12 -20 20 -37c6 -13 12 -25 13 -25s3 1 3 4c0 4 -6 18 -13 33c-6 14 -13 28 -13 32c0 2 2 3 3 3c5 0 30 -61 31 -61c4 -6 8 -8 8 -5c0 2 -3 12 -7 25c-7 25 -19 64 -19 80c0 3 1 6 3 6c5 0 11 -26 17 -51c6 -23 11 -46 15 -46c3 0 4 2 4 5c0 5 -3 14 -6 25c-6 18 -13 41 -13 64c0 6 0 11 2 11c8 0 14 -34 19 -61c3 -16 5 -29 7 -29c4 0 4 9 4 11c0 4 -1 13 -3 25c-2 15 -5 33 -5 43c0 5 0 17 3 17c6 0 13 -43 13 -76c0 -8 0 -15 5 -15c3 0 3 7 3 16c0 10 -1 22 -2 33c0 10 -1 19 -1 26c0 8 1 13 3 13c6 0 8 -26 9 -49c1 -18 2 -35 5 -35c2 0 5 11 5 31c0 13 0 33 2 33c5 0 8 -13 8 -34l-1 -27c0 -9 6 -6 7 -2c3 9 10 52 19 52c2 0 3 -5 3 -7c0 -5 -2 -13 -5 -22c-2 -9 -5 -18 -5 -24c0 -2 2 -2 3 -2c3 0 10 21 17 42c7 23 15 46 19 46s4 -13 4 -16c-2 -12 -10 -34 -16 -50c-3 -10 -6 -18 -6 -19s1 -3 3 -3c3 0 10 18 18 37c9 23 20 48 25 48c2 0 2 -2 2 -4c0 -12 -10 -34 -18 -52c-6 -12 -11 -23 -11 -27c0 0 2 -1 3 -1c3 0 12 18 22 35c10 18 20 35 22 35s3 -1 3 -4s-3 -12 -10 -25c-14 -28 -26 -42 -26 -45s0 -3 3 -3c5 0 15 18 24 33c6 11 12 21 14 21s3 -2 3 -4c0 -15 -30 -50 -30 -53s0 -3 2 -3s7 7 13 16c9 12 19 26 24 26c1 0 2 -2 2 -4c0 -7 -14 -22 -25 -34c-8 -8 -14 -15 -14 -17c0 -3 2 -3 2 -3c5 0 33 26 42 35c13 14 28 35 35 35c1 0 2 -1 2 -4c0 -13 -29 -38 -49 -55c-11 -9 -20 -17 -20 -19c0 -1 0 -2 3 -2c8 0 30 19 49 37c17 16 33 30 38 30c1 0 2 0 2 -3c0 -8 -28 -31 -51 -50c-16 -13 -29 -24 -29 -26c0 -4 2 -3 3 -3c4 0 19 11 34 23c18 13 37 27 42 27c2 0 2 0 2 -3c0 -2 -2 -6 -6 -9c-63 -46 -67 -42 -67 -48c0 -2 1 -3 3 -3s9 4 18 10c15 10 35 23 45 23c4 0 4 -2 2 -5c-2 -4 -16 -11 -30 -19c-13 -6 -25 -13 -30 -17c-3 -3 0 -5 3 -5c5 0 39 23 51 23c4 0 6 -1 6 -4c0 -2 -9 -6 -20 -11c-15 -6 -32 -14 -32 -19c0 -1 2 -3 4 -3s11 2 21 5c12 3 26 7 29 7c5 0 8 -1 8 -4c0 -4 -17 -8 -34 -12c-16 -3 -31 -7 -31 -10c0 -2 0 -5 3 -5c6 0 17 3 29 6c11 3 22 6 28 6c3 0 5 -2 5 -3c0 -8 -17 -5 -52 -16c-8 -3 -8 -8 0 -8c5 0 14 2 23 4s17 4 21 4c3 0 5 -2 5 -3c0 -5 -12 -8 -47 -14c-6 -1 -7 -8 2 -8c7 0 27 6 37 6c2 0 3 0 3 -1c0 -5 -13 -8 -25 -10c-11 -2 -21 -4 -21 -8c0 -1 3 -3 7 -3c8 0 26 5 28 5s5 0 5 -3c0 -4 -12 -6 -25 -8c-16 -2 -34 -5 -34 -13c0 0 1 -1 3 -1c5 0 16 4 24 4c3 0 6 -1 6 -4c0 -4 -31 -7 -33 -7c-6 0 -9 -5 -2 -5c8 0 15 2 19 2s5 -1 5 -3c0 -5 -24 -8 -30 -8c-3 0 -5 -7 -3 -7c5 0 19 3 19 1c0 -9 -19 -4 -30 -15c-18 -16 -24 -7 -39 -13c-13 -6 -24 -31 -53 -31c-8 0 -20 7 -30 7c-8 0 -17 -6 -29 -6c-18 0 -23 16 -31 19c-5 2 -31 7 -31 14c0 1 2 2 3 2c5 0 13 -5 17 -5c1 0 3 0 3 2c0 6 -36 8 -36 15c0 1 1 2 3 2c7 0 21 -5 23 -5c3 0 5 -1 5 1s-4 7 -7 7c0 0 -43 7 -43 15c0 2 0 3 3 3c7 0 32 -12 40 -12c3 0 3 1 3 2c0 7 -30 10 -47 22c-27 18 -60 50 -60 58z
M135 222c0 -3 12 -5 19 -5c9 0 17 2 17 5c0 2 -6 6 -17 6s-19 -4 -19 -6z
M151 242c0 -3 15 -7 23 -7c4 0 7 0 7 4c0 5 -9 8 -17 8c-7 0 -13 -2 -13 -5z
M167 257c0 -4 18 -5 20 -5c3 0 6 2 6 3c0 4 -6 7 -16 7c-5 0 -10 -1 -10 -5z
M170 181c0 -3 3 -4 14 -4c8 0 21 1 33 1c4 0 14 1 14 4s-5 4 -8 4c-23 0 -53 -1 -53 -5z
M173 201c0 -5 6 -4 21 -4c5 0 12 0 20 -1c9 -2 13 0 13 2c0 7 -40 8 -41 8c-9 0 -13 -2 -13 -5z
M184 218c0 -3 19 -6 32 -6c5 0 10 0 10 2c0 6 -17 9 -29 9c-8 0 -13 -1 -13 -5z
M192 233c0 -2 28 -6 29 -6c2 0 5 0 5 1c0 3 -11 11 -26 11c-7 0 -8 -4 -8 -6z
M199 249c0 -5 22 -9 28 -9c1 0 2 1 2 2c0 3 -13 10 -23 10c-4 0 -7 -1 -7 -3z
M205 435c0 -5 4 -22 27 -22c28 0 29 20 29 24c0 15 -13 28 -29 28c-8 0 -27 -5 -27 -30z
M207 261c0 -5 15 -8 17 -8c3 0 4 1 4 2c0 5 -12 8 -15 8c-2 0 -6 1 -6 -2z
M221 437c0 5 5 13 12 13c5 0 10 -7 10 -13c0 -4 -3 -8 -11 -8c-6 0 -11 4 -11 8z
M224 505c0 -20 17 -27 31 -27c16 0 29 14 29 27c0 17 -14 30 -27 30c-17 0 -33 -11 -33 -30z
M243 505c0 5 7 13 13 13c5 0 12 -8 12 -13s-7 -9 -13 -9c-5 0 -12 3 -12 9z
M258 220c0 -5 2 -7 4 -7s12 10 12 16c0 4 -5 6 -8 6c-4 0 -8 -6 -8 -15z
M259 380c0 -12 11 -27 30 -27c16 0 22 12 22 22c0 9 -3 27 -27 27c-16 0 -25 -10 -25 -22z
M268 206c0 -3 3 -4 4 -4c4 0 14 10 14 17c0 5 -1 5 -3 5c-5 0 -15 -13 -15 -18z
M269 246c0 -5 9 -8 12 -8s8 7 8 10c0 6 -4 8 -8 8c-6 0 -12 -4 -12 -10z
M273 440c0 -14 9 -26 33 -26c20 0 27 20 27 27c0 23 -22 29 -34 29c-16 0 -26 -15 -26 -30z
M275 377c0 6 6 11 10 11c6 0 11 -6 11 -12c0 -5 -4 -8 -10 -8c-5 0 -11 3 -11 9z
M281 556c0 -13 16 -18 23 -18c17 0 32 14 32 25c0 9 -10 22 -24 22c-12 0 -31 -6 -31 -29z
M286 265c0 -4 3 -8 9 -8c5 0 7 5 7 9c0 3 -2 7 -7 7s-9 -5 -9 -8z
M286 288c0 -3 4 -5 7 -5c5 0 10 3 10 10c0 3 -2 4 -6 4s-11 -3 -11 -9z
M290 235c0 -3 2 -7 7 -7s7 6 7 10c0 3 -2 6 -7 6c-2 0 -7 -5 -7 -9z
M292 440c0 5 4 12 10 12s11 -7 11 -12c0 -6 -5 -8 -10 -8s-11 3 -11 8z
M297 562c0 6 7 10 14 10c5 0 9 -3 9 -9c0 -7 -6 -12 -12 -12s-11 5 -11 11z
M302 305c0 -3 4 -7 9 -7c2 -1 6 1 6 6c0 4 -2 7 -6 7c-3 0 -9 -3 -9 -6z
M303 252c0 -6 4 -8 9 -8c4 0 8 3 8 7c0 5 -4 9 -7 9c-6 0 -10 -4 -10 -8z
M303 280c0 -7 7 -8 8 -8c4 0 7 3 7 8c0 2 0 7 -7 7c-4 0 -8 -4 -8 -7z
M305 504c0 -16 14 -29 29 -29c3 0 29 3 29 31c0 21 -17 25 -23 25c-7 0 -35 -5 -35 -27z
M317 266c0 -4 6 -7 8 -7s9 2 9 7s-3 9 -9 9c-5 0 -8 -6 -8 -8v-1z
M318 292c0 -3 2 -6 6 -6c7 0 10 4 10 8c0 3 -3 7 -8 7s-8 -6 -8 -9z
M319 311c0 -3 3 -5 7 -5c3 0 7 1 7 5c0 2 -4 5 -7 5s-7 -3 -7 -5z
M323 241c0 -8 29 -8 29 -36c0 -8 -4 -19 -10 -25c4 -1 12 -2 15 -2c8 0 17 1 28 3c18 3 40 6 69 6c11 0 15 2 15 4c0 8 -14 9 -20 9c-11 0 -27 -3 -40 -5c-11 -2 -20 -4 -25 -4c-2 0 -4 0 -4 1c0 8 54 17 66 17c6 0 12 1 12 5c0 5 -3 6 -11 6c-10 0 -23 -3 -35 -6c-9 -3 -18 -5 -24 -5c-1 0 -3 0 -3 2c0 3 27 12 48 15c12 1 12 3 12 6c0 2 -2 3 -6 3c-13 0 -40 -10 -50 -11c-1 0 -2 1 -2 1c0 2 2 5 8 7c26 10 37 11 37 16c0 3 -3 3 -5 3c-10 0 -33 -11 -39 -11c-1 0 -3 0 -3 1c0 6 39 19 39 23c0 2 -2 3 -4 3c-8 0 -30 -16 -37 -16c-1 0 -2 1 -2 2c0 9 35 19 35 25c0 3 -4 3 -5 3c-16 0 -43 -22 -45 -22s-4 2 -4 4c0 3 7 10 7 14s-4 5 -6 5c-10 0 -40 -39 -40 -41z
M324 502c0 5 5 11 12 11c6 0 11 -6 11 -11c0 -6 -6 -10 -11 -10c-7 0 -12 3 -12 10z
M325 371c0 -16 12 -23 23 -23c6 0 30 2 30 30c0 18 -22 22 -30 22c-12 0 -23 -10 -23 -29z
M333 280c0 -4 2 -7 8 -7c4 0 9 5 9 10c0 6 -8 6 -9 6c-3 0 -8 -5 -8 -9z
M337 305c0 -4 3 -6 6 -6c5 0 10 3 10 8c0 3 -5 6 -9 6c-3 0 -7 -4 -7 -8z
M342 373c0 7 6 9 11 9s9 -3 9 -8c0 -7 -5 -13 -10 -13c-6 0 -10 5 -10 12z
M343 449c0 -16 14 -25 27 -25s27 8 27 25c0 12 -10 25 -24 25c-19 0 -30 -13 -30 -25z
M352 294c0 -5 2 -6 5 -6c2 0 6 2 6 6c0 3 -3 5 -5 5c-4 0 -6 -2 -6 -5z
M354 562c0 -16 11 -24 24 -24c5 0 27 5 27 26c0 12 -6 22 -23 22c-15 0 -28 -5 -28 -24z
M361 447c0 8 5 12 10 12c9 0 11 -10 11 -13c0 -5 -5 -9 -12 -9c-1 0 -9 0 -9 10z
M369 561c0 5 4 11 11 11c4 0 10 -3 10 -9s-5 -12 -11 -12s-10 6 -10 10z
M386 400c0 -11 18 -20 25 -20c13 0 26 12 26 21c0 12 -12 25 -27 25c-13 0 -24 -13 -24 -26z
M391 516c0 -10 6 -24 26 -24c12 0 28 8 28 24c0 9 -5 25 -24 25s-30 -15 -30 -25z
M402 401c0 2 1 12 9 12c7 0 10 -4 10 -10c0 -5 -6 -9 -9 -9c-4 0 -10 3 -10 7z
M410 515c0 7 3 11 11 11c6 0 9 -5 9 -10c0 -6 -3 -11 -11 -11c-4 0 -9 3 -9 10z
M412 457c0 -12 9 -24 24 -24c11 0 28 4 28 23c0 11 -7 26 -24 26c-8 0 -28 -5 -28 -25z
M427 455c0 6 6 12 13 12s8 -7 8 -11c0 -5 -2 -11 -8 -11s-13 4 -13 10z
M432 270c0 -2 2 -4 5 -4c5 0 27 2 27 7c0 1 -3 4 -9 4s-23 -4 -23 -7z
M449 252c0 -2 2 -3 6 -3l23 1c4 0 6 1 6 4s-5 7 -11 7c-5 0 -24 -4 -24 -9z
M463 233c0 -4 17 -4 27 -4c6 0 10 0 10 3c0 2 -3 7 -17 7c-12 0 -20 -1 -20 -6z
M474 213c0 -4 32 -8 35 -8c5 0 6 2 6 4c0 4 -5 10 -27 10c-12 0 -15 -1 -14 -6z
M482 191c0 -5 12 -10 32 -12h1c3 0 5 1 5 3c0 4 -5 9 -11 10c-4 1 -12 2 -18 2c-5 0 -9 -1 -9 -3z
" />
<path fill="#c00" d="
M110 368c0 2 4 2 8 2c38 -2 71 -40 71 -46c0 -1 0 -2 -2 -2c-5 0 -23 15 -30 21c-20 14 -47 22 -47 25z
M121 412c0 1 1 1 4 1c6 0 65 -14 94 -69c2 -6 4 -10 4 -12s-1 -3 -2 -3c-2 0 -2 2 -11 11c-80 79 -89 65 -89 72z
M122 322c0 2 3 2 11 2c13 0 40 -14 40 -16c0 -1 0 -1 -2 -1c-5 0 -49 6 -49 15z
M191 306c0 1 1 1 3 1c5 0 17 -4 20 -4c2 0 2 0 2 2c0 7 -18 24 -18 28c0 1 1 1 2 1c3 0 31 -24 31 -35c0 -6 -1 -7 -7 -7c-12 0 -33 11 -33 14z
M223 83c0 4 10 9 39 12c9 1 12 2 12 27c0 13 -3 20 -3 24c0 1 0 2 3 2c4 0 15 -5 17 -8c1 -2 1 -5 1 -9c0 -7 -5 -34 -6 -37c6 -5 9 -9 9 -12c0 -1 -3 -3 -4 -3c-5 0 -9 5 -12 4c-3 0 -32 -24 -42 -24c-2 0 -3 2 -3 3c0 2 20 19 20 21c0 1 -1 1 -2 1c-12 0 -21 -3 -25 -3c-3 0 -4 0 -4 2z
M295 70c0 10 38 15 38 43c0 9 -2 22 -4 33c-1 4 2 3 4 3c3 0 17 -3 17 -10c0 -9 -2 -22 -2 -31c0 -32 12 -19 33 -31c0 -1 3 -3 3 -4c0 -2 -1 -2 -5 -2c-5 0 -24 4 -33 4c-3 0 -18 -16 -26 -16c-1 0 -2 1 -2 3s15 16 9 16c-3 0 -22 -11 -29 -11c-2 0 -3 0 -3 3z
M235 289c0 1 0 2 2 2c6 0 13 -10 13 -16c0 -2 -2 -3 -3 -3c-5 0 -12 12 -12 17z
M395 308c-1 0 -3 2 2 6c41 44 87 73 109 73c7 0 7 -7 4 -8c-5 -3 -13 -7 -21 -11s-17 -8 -23 -12c-49 -31 -66 -48 -71 -48z
M433 315c0 1 47 37 69 37c5 0 9 -1 9 -3c0 -4 -12 -9 -70 -33c-2 -1 -9 -5 -8 -1z
M452 305c0 2 27 14 42 14c7 0 11 -2 13 -6v-1c0 -2 -3 -2 -11 -2c-27 -2 -37 -6 -41 -6c-1 0 -3 0 -3 1z
" />
</g>
</svg>

