<svg xmlns="http://www.w3.org/2000/svg" xmlns:xlink="http://www.w3.org/1999/xlink" version="1.1" viewBox="60 0 520 760">
<g transform="matrix(1 0 0 -1 0 760)">
<path fill="#000"
d="M118 241c34 17 70 36 98 60l-4 13l9 -7
c12 10 22 23 32 43c-7 1 -13 5 -19 12c-2 2 2 4 2 7c0 2 -11 15 -24 30c-17 20 -37 44 -42 55c2 4 5 5 8 5c7 0 17 -6 26 -10c29 6 62 14 89 22c-1 6 -1 16 -1 22c-13 -2 -22 -6 -35 -6c-15 0 -21 5 -25 14l20 3c12 1 24 3 38 8v3c0 36 -10 50 -19 63c-8 12 -17 24 -17 52
c31 -14 53 -20 70 -24c22 -6 32 -9 32 -24c0 -18 -34 -1 -39 -62c27 8 25 19 35 19c13 0 30 -12 30 -18c0 -7 -12 -9 -30 -13c-11 -2 -23 -5 -36 -9c0 -7 -2 -17 -2 -23l37 7c21 4 40 8 48 8c12 0 41 -30 41 -47c0 -10 -14 -12 -22 -13c-7 -19 -16 -31 -24 -41
c-7 -9 -13 -16 -13 -25c0 -6 -2 -16 -9 -16c-6 0 -11 4 -15 7c0 0 -13 -1 -20 -4c35 -44 78 -60 114 -74c30 -12 56 -21 71 -44c-28 3 -38 16 -52 16c-11 0 -27 -19 -47 -19c-22 0 -42 30 -66 67c-11 17 -23 34 -36 52c-2 -1 -5 -1 -8 -1c0 -12 -1 -21 -1 -30
c-1 -8 -1 -15 -1 -24c0 -31 6 -63 10 -88c3 -15 5 -27 5 -34c0 -19 -2 -46 -19 -46c-16 0 -31 52 -31 78c0 8 -25 44 -49 77c-37 -30 -66 -44 -93 -44c-5 0 -10 0 -16 3zM218 435c6 -6 17 -17 20 -22c9 5 20 6 31 8c8 1 17 1 25 4c0 10 -1 21 -1 33c-27 -5 -53 -13 -75 -23z
M236 290c5 -5 10 -11 14 -16c11 -13 22 -26 30 -26c12 0 14 83 15 100c-5 0 -10 1 -16 1c-8 -14 -25 -37 -43 -59zM249 398c4 -9 8 -17 17 -26c9 -2 17 -1 29 -2c0 13 -1 26 -1 36c-20 -1 -36 -3 -45 -8zM312 391c0 -5 0 -12 1 -19c13 0 28 3 37 5c5 7 13 24 20 36
c-4 2 -5 4 -11 4c-5 0 -13 -2 -22 -4c-8 -2 -17 -4 -24 -5c-1 -5 -1 -11 -1 -17zM312 427c27 3 20 14 42 14c10 0 14 -8 23 -14c5 9 13 22 13 33c0 6 -10 8 -24 8c-16 0 -36 -3 -52 -7c-2 -12 -1 -22 -2 -34z" />
</g>
</svg>
