<svg xmlns="http://www.w3.org/2000/svg" xmlns:xlink="http://www.w3.org/1999/xlink" version="1.1" viewBox="60 0 520 760">
<g transform="matrix(1 0 0 -1 0 760)">
<path fill="#009"
d="M189 220c0 72 59 131 131 131
s131 -59 131 -131s-59 -131 -131 -131s-131 59 -131 131zM189 540c0 72 59 131 131 131s131 -59 131 -131s-59 -131 -131 -131s-131 59 -131 131zM212 220c0 -60 48 -108 108 -108s108 48 108 108s-48 108 -108 108s-108 -48 -108 -108zM212 540c0 -60 48 -108 108 -108
s108 48 108 108s-48 108 -108 108s-108 -48 -108 -108zM224 220c0 53 43 96 96 96s96 -43 96 -96s-43 -96 -96 -96s-96 43 -96 96zM224 540c0 53 43 96 96 96s96 -43 96 -96s-43 -96 -96 -96s-96 43 -96 96zM230 220c0 -8 1 -16 3 -24l21 -10l33 19l-3 11h-32v8h32l3 11
l-33 19l-21 -10c-2 -8 -3 -16 -3 -24zM230 540c0 -8 1 -16 3 -24l21 -10l33 19l-3 11h-32v8h32l3 11l-33 19l-21 -10c-2 -8 -3 -16 -3 -24zM256 157c11 -12 25 -20 41 -24l19 13v38l-11 3l-16 -28l-6 4l16 28c-3 2 -6 5 -8 8l-34 -19zM256 283l1 -23l34 -19c2 3 5 6 8 8
l-16 28l6 4l16 -28l11 3v38l-19 13c-16 -4 -30 -12 -41 -24zM256 477c11 -12 25 -20 41 -24l19 13v38l-11 3l-16 -28l-6 4l16 28c-3 2 -6 5 -8 8l-34 -19zM256 603l1 -23l34 -19c2 3 5 6 8 8l-16 28l6 4l16 -28l11 3v38l-19 13c-16 -4 -30 -12 -41 -24zM290 220
c0 -17 13 -30 30 -30s30 13 30 30s-13 30 -30 30s-30 -13 -30 -30zM290 540c0 -17 13 -30 30 -30s30 13 30 30s-13 30 -30 30s-30 -13 -30 -30zM306 220c0 8 6 14 14 14s14 -6 14 -14s-6 -14 -14 -14s-14 6 -14 14zM306 540c0 8 6 14 14 14s14 -6 14 -14s-6 -14 -14 -14
s-14 6 -14 14zM324 146l19 -13c16 4 30 12 41 24l-1 23l-34 19c-2 -3 -5 -6 -8 -8l16 -28l-6 -4l-16 28l-11 -3v-38zM324 256l11 -3l16 28l6 -4l-16 -28c3 -2 6 -5 8 -8l34 19l1 23c-11 12 -25 20 -41 24l-19 -13v-38zM324 466l19 -13c16 4 30 12 41 24l-1 23l-34 19
c-2 -3 -5 -6 -8 -8l16 -28l-6 -4l-16 28l-11 -3v-38zM324 576l11 -3l16 28l6 -4l-16 -28c3 -2 6 -5 8 -8l34 19l1 23c-11 12 -25 20 -41 24l-19 -13v-38zM353 205l33 -19l21 10c2 8 3 16 3 24s-1 16 -3 24l-21 10l-33 -19l3 -11h32v-8h-32zM353 525l33 -19l21 10
c2 8 3 16 3 24s-1 16 -3 24l-21 10l-33 -19l3 -11h32v-8h-32z" />
</g>
</svg>
