<svg xmlns="http://www.w3.org/2000/svg" xmlns:xlink="http://www.w3.org/1999/xlink" version="1.1" viewBox="60 0 520 760">
<g transform="matrix(1 0 0 -1 0 760)">
<path fill="#000"
d="M141 502c21 4 51 11 84 19c11 2 22 5 34 7
c72 17 145 33 159 33c17 0 22 -10 38 -19c34 -19 43 -30 43 -44c0 -11 -6 -13 -14 -13c-15 0 -32 2 -49 5c-17 2 -34 4 -48 4c-6 0 -10 -1 -16 -2c-3 -2 -8 -5 -9 -11c9 -5 18 -9 18 -20c0 -16 -18 -10 -33 -17c-3 -6 -5 -11 -7 -25c31 6 29 15 47 15c20 0 86 -48 86 -73
c0 -9 -5 -14 -14 -22c-16 -15 -45 -42 -81 -123c-2 -5 -6 -18 -37 -18c-8 0 -16 1 -23 2s-15 2 -24 2c-10 0 -18 -1 -26 -2c-7 -1 -14 -2 -22 -2c-30 0 -38 12 -38 20c0 7 10 11 15 14c-21 56 -36 96 -47 123s-17 42 -18 49c3 2 4 6 7 4c16 -11 34 -28 38 -35
c19 6 38 13 54 22c-2 18 -6 48 -6 56c0 7 0 16 6 16c12 0 16 -45 16 -58c20 21 39 43 47 54c1 5 1 10 4 16c5 2 9 3 15 5c8 6 18 16 21 24c-4 5 -20 6 -34 6c-54 0 -111 -13 -142 -20c-12 -2 -19 -4 -22 -4c-10 0 -21 3 -22 12zM210 359c13 -30 38 -103 43 -124h17
c-1 13 -3 23 -4 33c-3 16 -5 30 -5 51l-3 60c-11 -3 -32 -12 -48 -20zM277 386l3 -51c2 -29 4 -58 6 -101c5 0 11 -1 16 -1c3 48 7 89 10 122l3 41c-14 -4 -28 -6 -38 -10zM295 408c11 1 14 4 23 6c0 5 1 11 1 17v3l-4 1c-5 0 -9 -2 -12 -4c-4 -7 -7 -17 -8 -23zM318 231
c3 0 5 -1 7 -1c3 0 5 1 9 2c18 24 68 121 68 137c0 20 -29 35 -39 35s-16 -1 -26 -3l-5 -35l-3 -24c-4 -28 -8 -62 -11 -111z" />
</g>
</svg>
