<svg xmlns="http://www.w3.org/2000/svg" xmlns:xlink="http://www.w3.org/1999/xlink" version="1.1" viewBox="60 0 520 760">
<g transform="matrix(1 0 0 -1 0 760)">
<path fill="#009"
d="M100 155c0 55 45 100 100 100
s100 -45 100 -100s-45 -100 -100 -100s-100 45 -100 100zM100 605c0 55 45 100 100 100s100 -45 100 -100s-45 -100 -100 -100s-100 45 -100 100zM120 155c0 -44 36 -80 80 -80s80 36 80 80s-36 80 -80 80s-80 -36 -80 -80zM120 605c0 -44 36 -80 80 -80s80 36 80 80
s-36 80 -80 80s-80 -36 -80 -80zM130 155c0 39 31 70 70 70s70 -31 70 -70s-31 -70 -70 -70s-70 31 -70 70zM130 605c0 39 31 70 70 70s70 -31 70 -70s-31 -70 -70 -70s-70 31 -70 70zM140 151l9 -7l19 6l2 4c0 13 5 17 7 24l-11 16h-12c-9 -11 -14 -24 -14 -39v-4zM140 601
l9 -7l19 6l2 4c0 13 5 17 7 24l-11 16h-12c-9 -11 -14 -24 -14 -39v-4zM149 123c8 -13 21 -22 37 -26l9 6v20l-3 3c-7 2 -13 6 -17 12l-4 2l-18 -6zM149 573c8 -13 21 -22 37 -26l9 6v20l-3 3c-7 2 -13 6 -17 12l-4 2l-18 -6zM174 200l11 -16h4c4 1 7 1 11 1s7 0 11 -1h4
l11 16l-4 11c-6 2 -14 4 -22 4s-16 -2 -22 -4zM174 650l11 -16h4c4 1 7 1 11 1s7 0 11 -1h4l11 16l-4 11c-6 2 -14 4 -22 4s-16 -2 -22 -4zM180 155c0 -11 9 -20 20 -20s20 9 20 20s-9 20 -20 20s-20 -9 -20 -20zM180 605c0 -11 9 -20 20 -20s20 9 20 20s-9 20 -20 20
s-20 -9 -20 -20zM190 155c0 6 4 10 10 10s10 -4 10 -10s-4 -10 -10 -10s-10 4 -10 10zM190 605c0 6 4 10 10 10s10 -4 10 -10s-4 -10 -10 -10s-10 4 -10 10zM205 103l9 -6c16 4 29 13 37 26l-4 11l-18 6c-7 -6 -15 -13 -24 -17v-20zM205 553l9 -6c16 4 29 13 37 26l-4 11
l-18 6c-7 -6 -15 -13 -24 -17v-20zM223 178c2 -7 7 -11 7 -24l2 -4l19 -6l9 7v4c0 15 -5 28 -14 39h-12zM223 628c2 -7 7 -11 7 -24l2 -4l19 -6l9 7v4c0 15 -5 28 -14 39h-12zM340 155c0 55 45 100 100 100s100 -45 100 -100s-45 -100 -100 -100s-100 45 -100 100zM340 605
c0 55 45 100 100 100s100 -45 100 -100s-45 -100 -100 -100s-100 45 -100 100zM360 155c0 -44 36 -80 80 -80s80 36 80 80s-36 80 -80 80s-80 -36 -80 -80zM360 605c0 -44 36 -80 80 -80s80 36 80 80s-36 80 -80 80s-80 -36 -80 -80zM370 155c0 39 31 70 70 70
s70 -31 70 -70s-31 -70 -70 -70s-70 31 -70 70zM370 605c0 39 31 70 70 70s70 -31 70 -70s-31 -70 -70 -70s-70 31 -70 70zM380 151l9 -7l19 6l2 4c0 13 5 17 7 24l-11 16h-12c-9 -11 -14 -24 -14 -39v-4zM380 601l9 -7l19 6l2 4c0 13 5 17 7 24l-11 16h-12
c-9 -11 -14 -24 -14 -39v-4zM389 123c8 -13 21 -22 37 -26l9 6v20l-3 3c-7 2 -13 6 -17 12l-4 2l-18 -6zM389 573c8 -13 21 -22 37 -26l9 6v20l-3 3c-7 2 -13 6 -17 12l-4 2l-18 -6zM414 200l11 -16h4c4 1 7 1 11 1s7 0 11 -1h4l11 16l-4 11c-6 2 -14 4 -22 4s-16 -2 -22 -4
zM414 650l11 -16h4c4 1 7 1 11 1s7 0 11 -1h4l11 16l-4 11c-6 2 -14 4 -22 4s-16 -2 -22 -4zM420 155c0 -11 9 -20 20 -20s20 9 20 20s-9 20 -20 20s-20 -9 -20 -20zM420 605c0 -11 9 -20 20 -20s20 9 20 20s-9 20 -20 20s-20 -9 -20 -20zM430 155c0 6 4 10 10 10
s10 -4 10 -10s-4 -10 -10 -10s-10 4 -10 10zM430 605c0 6 4 10 10 10s10 -4 10 -10s-4 -10 -10 -10s-10 4 -10 10zM445 103l9 -6c16 4 29 13 37 26l-4 11l-18 6c-7 -6 -15 -13 -24 -17v-20zM445 553l9 -6c16 4 29 13 37 26l-4 11l-18 6c-7 -6 -15 -13 -24 -17v-20zM463 178
c2 -7 7 -11 7 -24l2 -4l19 -6l9 7v4c0 15 -5 28 -14 39h-12zM463 628c2 -7 7 -11 7 -24l2 -4l19 -6l9 7v4c0 15 -5 28 -14 39h-12z" />
</g>
</svg>
