<svg xmlns="http://www.w3.org/2000/svg" xmlns:xlink="http://www.w3.org/1999/xlink" version="1.1" viewBox="60 0 520 760">
<g transform="matrix(1 0 0 -1 0 760)">
<path fill="#060"
d="M139 70c0 10 7 16 15 21c6 6 13 11 13 19v47
c0 11 -25 24 -25 43s25 32 25 43v48c0 8 -7 13 -13 19c-8 5 -15 11 -15 21c0 16 16 23 23 23c13 0 15 14 38 14s25 -14 38 -14c7 0 23 -7 23 -23c0 -10 -7 -16 -15 -21c-6 -6 -13 -11 -13 -19v-48c0 -11 25 -24 25 -43s-25 -32 -25 -43v-47c0 -8 7 -13 13 -19
c8 -5 15 -11 15 -21c0 -14 -12 -23 -26 -23c-16 0 -17 9 -35 9s-19 -9 -35 -9c-14 0 -26 9 -26 23zM139 425c0 10 7 16 15 21c6 6 13 11 13 19v47c0 11 -25 24 -25 43s25 32 25 43v48c0 8 -7 13 -13 19c-8 5 -15 11 -15 21c0 16 16 23 23 23c13 0 15 14 38 14s25 -14 38 -14
c7 0 23 -7 23 -23c0 -10 -7 -16 -15 -21c-6 -6 -13 -11 -13 -19v-48c0 -11 25 -24 25 -43s-25 -32 -25 -43v-47c0 -8 7 -13 13 -19c8 -5 15 -11 15 -21c0 -14 -12 -23 -26 -23c-16 0 -17 9 -35 9s-19 -9 -35 -9c-14 0 -26 9 -26 23zM167 188c0 -5 4 -8 10 -8h46
c6 0 10 4 10 8s-4 7 -10 7h-46c-6 0 -10 -3 -10 -7zM167 213c0 -5 4 -8 10 -8h46c6 0 10 4 10 8s-4 7 -10 7h-46c-6 0 -10 -3 -10 -7zM167 543c0 -5 4 -8 10 -8h46c6 0 10 4 10 8s-4 7 -10 7h-46c-6 0 -10 -3 -10 -7zM167 568c0 -5 4 -8 10 -8h46c6 0 10 4 10 8s-4 7 -10 7
h-46c-6 0 -10 -3 -10 -7zM175 330c0 -7 4 -14 10 -18v-82h30v82c6 4 10 11 10 18c0 12 -11 22 -25 22s-25 -10 -25 -22zM175 685c0 -7 4 -14 10 -18v-82h30v82c6 4 10 11 10 18c0 12 -11 22 -25 22s-25 -10 -25 -22zM185 82c0 -8 5 -13 15 -13s15 5 15 13v88h-30v-88z
M185 437c0 -8 5 -13 15 -13s15 5 15 13v88h-30v-88zM379 70c0 10 7 16 15 21c6 6 13 11 13 19v47c0 11 -25 24 -25 43s25 32 25 43v48c0 8 -7 13 -13 19c-8 5 -15 11 -15 21c0 16 16 23 23 23c13 0 15 14 38 14s25 -14 38 -14c7 0 23 -7 23 -23c0 -10 -7 -16 -15 -21
c-6 -6 -13 -11 -13 -19v-48c0 -11 25 -24 25 -43s-25 -32 -25 -43v-47c0 -8 7 -13 13 -19c8 -5 15 -11 15 -21c0 -14 -12 -23 -26 -23c-16 0 -17 9 -35 9s-19 -9 -35 -9c-14 0 -26 9 -26 23zM379 425c0 10 7 16 15 21c6 6 13 11 13 19v47c0 11 -25 24 -25 43s25 32 25 43v48
c0 8 -7 13 -13 19c-8 5 -15 11 -15 21c0 16 16 23 23 23c13 0 15 14 38 14s25 -14 38 -14c7 0 23 -7 23 -23c0 -10 -7 -16 -15 -21c-6 -6 -13 -11 -13 -19v-48c0 -11 25 -24 25 -43s-25 -32 -25 -43v-47c0 -8 7 -13 13 -19c8 -5 15 -11 15 -21c0 -14 -12 -23 -26 -23
c-16 0 -17 9 -35 9s-19 -9 -35 -9c-14 0 -26 9 -26 23zM407 188c0 -5 4 -8 10 -8h46c6 0 10 4 10 8s-4 7 -10 7h-46c-6 0 -10 -3 -10 -7zM407 213c0 -5 4 -8 10 -8h46c6 0 10 4 10 8s-4 7 -10 7h-46c-6 0 -10 -3 -10 -7zM407 543c0 -5 4 -8 10 -8h46c6 0 10 4 10 8
s-4 7 -10 7h-46c-6 0 -10 -3 -10 -7zM407 568c0 -5 4 -8 10 -8h46c6 0 10 4 10 8s-4 7 -10 7h-46c-6 0 -10 -3 -10 -7zM415 330c0 -7 4 -14 10 -18v-82h30v82c6 4 10 11 10 18c0 12 -11 22 -25 22s-25 -10 -25 -22zM415 685c0 -7 4 -14 10 -18v-82h30v82c6 4 10 11 10 18
c0 12 -11 22 -25 22s-25 -10 -25 -22zM425 82c0 -8 5 -13 15 -13s15 5 15 13v88h-30v-88zM425 437c0 -8 5 -13 15 -13s15 5 15 13v88h-30v-88z" />
</g>
</svg>
