<svg xmlns="http://www.w3.org/2000/svg" xmlns:xlink="http://www.w3.org/1999/xlink" version="1.1" viewBox="60 0 520 760">
<g transform="matrix(1 0 0 -1 0 760)">
<path fill="#000"
d="M123 215c0 8 6 15 14 26c16 21 43 55 63 130
c-17 11 -35 24 -38 48c13 -6 28 -10 45 -12c1 7 3 13 6 19c2 -5 3 -10 4 -23c13 -4 28 -8 28 -22c0 -13 -24 -14 -32 -14c-8 -45 -15 -71 -19 -86c-2 -11 -4 -17 -4 -21s0 -8 2 -11c15 2 61 32 78 46c5 8 6 24 6 43c0 15 -1 33 -1 49c0 51 -13 65 -23 76c-5 6 -10 11 -10 22
c0 7 3 14 8 19c16 -6 29 -9 38 -12c24 -6 31 -8 40 -36c-24 -15 -24 -41 -27 -138c10 7 18 13 25 19c6 4 12 8 17 12c0 24 2 46 5 65c1 16 3 30 3 43c0 38 -16 43 -29 52c5 17 16 27 27 37c6 5 12 11 18 18c8 -6 40 -42 40 -60c0 -15 -34 -6 -34 -77v-58c7 5 14 9 20 12
c18 11 31 18 31 39c0 3 -1 5 -1 8c4 4 12 6 21 6c17 0 44 -14 44 -32c0 -6 -8 -8 -23 -12c-20 -5 -51 -13 -90 -37v-8c0 -84 10 -96 61 -96c21 0 34 3 45 6c8 1 15 3 23 3c6 0 13 -3 13 -10c0 -17 -16 -42 -113 -42c-35 0 -59 16 -59 41c0 14 1 21 1 34c0 11 -1 21 -2 30
c0 8 -1 16 -1 24c-15 -11 -26 -20 -42 -34c0 -8 2 -12 2 -20c0 -20 -17 -32 -23 -33c-4 0 -11 5 -11 11c0 7 -4 10 -7 14c-19 -13 -34 -26 -48 -39c-25 -22 -44 -40 -73 -40c-9 0 -18 4 -18 21z" />
</g>
</svg>
