<svg xmlns="http://www.w3.org/2000/svg" xmlns:xlink="http://www.w3.org/1999/xlink" version="1.1" viewBox="60 0 520 760">
<g transform="matrix(1 0 0 -1 0 760)">
<path fill="#060" d="
M104 70c0 10 7 16 15 21c6 6 13 11 13 19v47c0 11 -25 24 -25 43s25 32 25 43v48c0 8 -7 13 -13 19c-8 5 -15 11 -15 21c0 16 16 23 23 23c13 0 15 14 38 14s25 -14 38 -14c7 0 23 -7 23 -23c0 -10 -7 -16 -15 -21c-6 -6 -13 -11 -13 -19v-48c0 -11 25 -24 25 -43s-25 -32 -25 -43v-47c0 -8 7 -13 13 -19c8 -5 15 -11 15 -21c0 -14 -12 -23 -26 -23c-16 0 -17 9 -35 9s-19 -9 -35 -9c-14 0 -26 9 -26 23z
M104 425c0 10 7 16 15 21c6 6 13 11 13 19v47c0 11 -25 24 -25 43s25 32 25 43v48c0 8 -7 13 -13 19c-8 5 -15 11 -15 21c0 16 16 23 23 23c13 0 15 14 38 14s25 -14 38 -14c7 0 23 -7 23 -23c0 -10 -7 -16 -15 -21c-6 -6 -13 -11 -13 -19v-48c0 -11 25 -24 25 -43s-25 -32 -25 -43v-47c0 -8 7 -13 13 -19c8 -5 15 -11 15 -21c0 -14 -12 -23 -26 -23c-16 0 -17 9 -35 9s-19 -9 -35 -9c-14 0 -26 9 -26 23z
M132 188c0 -5 4 -8 10 -8h46c6 0 10 4 10 8s-4 7 -10 7h-46c-6 0 -10 -3 -10 -7z
M132 213c0 -5 4 -8 10 -8h46c6 0 10 4 10 8s-4 7 -10 7h-46c-6 0 -10 -3 -10 -7z
M132 543c0 -5 4 -8 10 -8h46c6 0 10 4 10 8s-4 7 -10 7h-46c-6 0 -10 -3 -10 -7z
M132 568c0 -5 4 -8 10 -8h46c6 0 10 4 10 8s-4 7 -10 7h-46c-6 0 -10 -3 -10 -7z
M140 330c0 -7 4 -14 10 -18v-82h30v82c6 4 10 11 10 18c0 12 -11 22 -25 22s-25 -10 -25 -22z
M140 685c0 -7 4 -14 10 -18v-82h30v82c6 4 10 11 10 18c0 12 -11 22 -25 22s-25 -10 -25 -22z
M150 82c0 -8 5 -13 15 -13s15 5 15 13v88h-30v-88z
M150 437c0 -8 5 -13 15 -13s15 5 15 13v88h-30v-88z
M414 70c0 10 7 16 15 21c6 6 13 11 13 19v47c0 11 -25 24 -25 43s25 32 25 43v48c0 8 -7 13 -13 19c-8 5 -15 11 -15 21c0 16 16 23 23 23c13 0 15 14 38 14s25 -14 38 -14c7 0 23 -7 23 -23c0 -10 -7 -16 -15 -21c-6 -6 -13 -11 -13 -19v-48c0 -11 25 -24 25 -43s-25 -32 -25 -43v-47c0 -8 7 -13 13 -19c8 -5 15 -11 15 -21c0 -14 -12 -23 -26 -23c-16 0 -17 9 -35 9s-19 -9 -35 -9c-14 0 -26 9 -26 23z
M414 425c0 10 7 16 15 21c6 6 13 11 13 19v47c0 11 -25 24 -25 43s25 32 25 43v48c0 8 -7 13 -13 19c-8 5 -15 11 -15 21c0 16 16 23 23 23c13 0 15 14 38 14s25 -14 38 -14c7 0 23 -7 23 -23c0 -10 -7 -16 -15 -21c-6 -6 -13 -11 -13 -19v-48c0 -11 25 -24 25 -43s-25 -32 -25 -43v-47c0 -8 7 -13 13 -19c8 -5 15 -11 15 -21c0 -14 -12 -23 -26 -23c-16 0 -17 9 -35 9s-19 -9 -35 -9c-14 0 -26 9 -26 23z
M442 188c0 -5 4 -8 10 -8h46c6 0 10 4 10 8s-4 7 -10 7h-46c-6 0 -10 -3 -10 -7z
M442 213c0 -5 4 -8 10 -8h46c6 0 10 4 10 8s-4 7 -10 7h-46c-6 0 -10 -3 -10 -7z
M442 543c0 -5 4 -8 10 -8h46c6 0 10 4 10 8s-4 7 -10 7h-46c-6 0 -10 -3 -10 -7z
M442 568c0 -5 4 -8 10 -8h46c6 0 10 4 10 8s-4 7 -10 7h-46c-6 0 -10 -3 -10 -7z
M450 330c0 -7 4 -14 10 -18v-82h30v82c6 4 10 11 10 18c0 12 -11 22 -25 22s-25 -10 -25 -22z
M450 685c0 -7 4 -14 10 -18v-82h30v82c6 4 10 11 10 18c0 12 -11 22 -25 22s-25 -10 -25 -22z
M460 82c0 -8 5 -13 15 -13s15 5 15 13v88h-30v-88z
M460 437c0 -8 5 -13 15 -13s15 5 15 13v88h-30v-88z
" />
<path fill="#c00" d="
M259 247c0 10 7 16 15 21c6 6 13 11 13 19v47c0 11 -25 24 -25 43s25 32 25 43v48c0 8 -7 13 -13 19c-8 5 -15 11 -15 21c0 16 16 23 23 23c13 0 15 14 38 14s25 -14 38 -14c7 0 23 -7 23 -23c0 -10 -7 -16 -15 -21c-6 -6 -13 -11 -13 -19v-48c0 -11 25 -24 25 -43s-25 -32 -25 -43v-47c0 -8 7 -13 13 -19c8 -5 15 -11 15 -21c0 -14 -12 -23 -26 -23c-16 0 -17 9 -35 9s-19 -9 -35 -9c-14 0 -26 9 -26 23z
M287 365c0 -5 4 -8 10 -8h46c6 0 10 4 10 8s-4 7 -10 7h-46c-6 0 -10 -3 -10 -7z
M287 390c0 -5 4 -8 10 -8h46c6 0 10 4 10 8s-4 7 -10 7h-46c-6 0 -10 -3 -10 -7z
M295 507c0 -7 4 -14 10 -18v-82h30v82c6 4 10 11 10 18c0 12 -11 22 -25 22s-25 -10 -25 -22z
M305 259c0 -8 5 -13 15 -13s15 5 15 13v88h-30v-88z
" />
</g>
</svg>
