<svg xmlns="http://www.w3.org/2000/svg" xmlns:xlink="http://www.w3.org/1999/xlink" version="1.1" viewBox="60 0 520 760">
<g transform="matrix(1 0 0 -1 0 760)">
<path fill="#060"
d="M111 296c51 41 94 82 120 116
c-4 8 -13 16 -22 24c-15 14 -30 28 -31 43c25 -3 62 -37 70 -46c8 10 30 41 39 65c-11 -1 -21 -6 -30 -11c-11 -5 -20 -10 -32 -10c-5 0 -9 1 -12 4c5 4 45 31 66 49c7 6 12 13 17 20c7 10 14 18 22 18s18 -6 18 -15c0 -8 -4 -12 -7 -20c5 -8 12 -15 19 -23
c9 12 16 34 23 54c6 18 12 34 17 39c7 -2 21 -22 21 -33c0 -6 -7 -7 -11 -15c-8 -21 -21 -44 -36 -65c6 -9 13 -21 21 -30c22 22 25 35 27 42c13 -1 25 -16 25 -24c0 -4 -1 -7 -5 -7c-14 0 -24 -17 -35 -25c42 -58 62 -72 76 -83c17 -12 27 -20 58 -83c-14 0 -32 11 -55 25
c-14 9 -31 19 -49 27c-7 11 -9 18 -12 27c-5 13 -10 31 -36 72c-6 -3 -9 -4 -17 -4c4 7 8 12 10 18c-11 21 -33 58 -49 75c-17 -34 -31 -56 -48 -82c-5 -7 -10 -15 -15 -23c4 -4 7 -6 14 -6c9 0 13 9 22 9c7 0 14 -4 16 -8c-5 -9 -15 -11 -23 -17c-3 -5 -5 -16 -4 -21
c10 2 23 7 33 13c10 36 13 75 13 80s0 8 -1 15c8 -5 25 -19 25 -36c0 -20 -6 -6 -26 -75c3 -4 2 -6 8 -6c7 0 13 3 20 7c9 4 18 9 29 9c9 0 13 -11 14 -15c-5 -5 -21 -5 -33 -12c-2 -12 -3 -19 -4 -38c17 0 30 2 36 2c8 0 11 8 19 6c13 -3 25 -10 30 -17
c-4 -9 -13 -10 -39 -10c-11 0 -20 1 -32 1c-5 0 -10 -1 -16 -1c-2 -19 -5 -54 -9 -60c-10 -14 -58 -41 -69 -41c-7 0 -14 6 -14 13c0 6 8 11 17 19c18 13 43 31 48 66c-12 -2 -32 -3 -46 -6c-7 -13 -12 -26 -17 -36c-14 -32 -23 -52 -43 -52c-21 0 -37 27 -55 47
c-7 -3 -15 -2 -22 -2c-11 0 -22 21 -26 35c14 -6 21 -11 35 -11c11 0 104 42 111 49c-1 7 -10 14 -17 19c-10 -2 -19 -10 -26 -17c-9 -7 -16 -14 -25 -14c-7 0 -14 3 -17 8c10 6 19 12 28 19c14 10 28 20 44 27c7 9 8 14 8 24c-4 2 -6 2 -10 2c-6 0 -12 -2 -25 -10
c-42 -50 -67 -68 -118 -78zM179 250c7 -7 26 -16 42 -16c15 0 40 42 40 50c0 4 -2 7 -6 10c-26 -12 -55 -27 -76 -44zM267 344c3 -16 12 -12 17 -20c3 -6 8 -14 9 -20c20 4 31 5 44 7c3 15 4 26 4 37c-13 0 -16 1 -21 3c-6 -7 -14 -16 -19 -17c0 6 5 17 9 31
c-14 -2 -32 -10 -43 -21zM382 259c5 5 15 6 25 6c30 0 65 -18 65 -39c0 -22 -28 -34 -48 -34c-2 0 -3 1 -5 1c-6 9 -8 14 -10 20c-4 9 -7 20 -27 46z" />
</g>
</svg>
