<svg xmlns="http://www.w3.org/2000/svg" xmlns:xlink="http://www.w3.org/1999/xlink" version="1.1" viewBox="60 0 520 760">
<g transform="matrix(1 0 0 -1 0 760)">
<path fill="#009" d="
M95 630c0 50 40 90 90 90s90 -40 90 -90c0 -4 0 -8 -1 -12c14 7 29 12 46 12c50 0 90 -40 90 -90c0 -4 0 -8 -1 -12c14 7 29 12 46 12c50 0 90 -40 90 -90c0 -46 -34 -84 -78 -89c14 -16 23 -38 23 -61c0 -35 -20 -65 -48 -80c28 -15 48 -45 48 -80c0 -50 -40 -90 -90 -90c-35 0 -65 20 -80 48c-15 -28 -45 -48 -80 -48c-50 0 -90 40 -90 90c0 35 20 65 48 80c-28 15 -48 45 -48 80c0 50 40 90 90 90c35 0 65 -20 80 -48c13 25 38 43 68 47c-14 16 -23 38 -23 61c0 4 0 8 1 12c-14 -7 -29 -12 -46 -12c-50 0 -90 40 -90 90c0 4 0 8 1 12c-14 -7 -29 -12 -46 -12c-50 0 -90 40 -90 90z
M115 630c0 -39 31 -70 70 -70s70 31 70 70s-31 70 -70 70s-70 -31 -70 -70z
M130 630c0 30 25 55 55 55s55 -25 55 -55s-25 -55 -55 -55s-55 25 -55 55z
M140 626l7 -6c6 1 11 4 13 10c0 11 4 9 6 22l-6 8h-9c-7 -8 -11 -19 -11 -30v-4z
M146 607c7 -10 17 -18 29 -21l8 5v10l-5 5c-6 2 -10 5 -14 10l-6 3l-9 -3z
M164 663l6 -8l7 -1c2 1 5 1 8 1s6 0 8 -1l7 1l6 8l-3 8c-6 3 -12 4 -18 4s-12 -1 -18 -4z
M170 140c0 -39 31 -70 70 -70s70 31 70 70s-31 70 -70 70s-70 -31 -70 -70z
M170 300c0 -39 31 -70 70 -70s70 31 70 70s-31 70 -70 70s-70 -31 -70 -70z
M170 630c0 -8 7 -15 15 -15s15 7 15 15s-7 15 -15 15s-15 -7 -15 -15z
M180 630c0 3 2 5 5 5s5 -2 5 -5s-2 -5 -5 -5s-5 2 -5 5z
M187 591l8 -5c12 3 22 11 29 21l-3 9l-9 3c-5 -2 -23 -16 -25 -18v-10z
M204 652c2 -13 6 -11 6 -22l4 -7l9 -3l7 6v4c0 11 -4 22 -11 30h-9z
M250 540c0 -39 31 -70 70 -70s70 31 70 70s-31 70 -70 70s-70 -31 -70 -70z
M265 540c0 30 25 55 55 55s55 -25 55 -55s-25 -55 -55 -55s-55 25 -55 55z
M275 536l7 -6c6 1 11 4 13 10c0 11 4 9 6 22l-6 8h-9c-7 -8 -11 -19 -11 -30v-4z
M281 220c17 -9 30 -22 39 -38c9 16 22 29 39 38c-17 9 -30 22 -39 38c-9 -16 -22 -29 -39 -38z
M281 517c7 -10 17 -18 29 -21l8 5v10l-5 5c-6 2 -10 5 -14 10l-6 3l-9 -3z
M299 573l6 -8l7 -1c2 1 5 1 8 1s6 0 8 -1l7 1l6 8l-3 8c-6 3 -12 4 -18 4s-12 -1 -18 -4z
M305 540c0 -8 7 -15 15 -15s15 7 15 15s-7 15 -15 15s-15 -7 -15 -15z
M315 540c0 3 2 5 5 5s5 -2 5 -5s-2 -5 -5 -5s-5 2 -5 5z
M330 140c0 -39 31 -70 70 -70s70 31 70 70s-31 70 -70 70s-70 -31 -70 -70z
M330 300c0 -39 31 -70 70 -70s70 31 70 70s-31 70 -70 70s-70 -31 -70 -70z
M322 501l8 -5c12 3 22 11 29 21l-3 9l-9 3c-5 -2 -23 -16 -25 -18v-10z
M339 562c2 -13 6 -11 6 -22l4 -7l9 -3l7 6v4c0 11 -4 22 -11 30h-9z
M385 450c0 -39 31 -70 70 -70s70 31 70 70s-31 70 -70 70s-70 -31 -70 -70z
M400 450c0 30 25 55 55 55s55 -25 55 -55s-25 -55 -55 -55s-55 25 -55 55z
M410 446l7 -6c6 1 11 4 13 10c0 11 4 9 6 22l-6 8h-9c-7 -8 -11 -19 -11 -30v-4z
M416 427c7 -10 17 -18 29 -21l8 5v10l-5 5c-6 2 -10 5 -14 10l-6 3l-9 -3z
M434 483l6 -8l7 -1c2 1 5 1 8 1s6 0 8 -1l7 1l6 8l-3 8c-6 3 -12 4 -18 4s-12 -1 -18 -4z
M440 450c0 -8 7 -15 15 -15s15 7 15 15s-7 15 -15 15s-15 -7 -15 -15z
M450 450c0 3 2 5 5 5s5 -2 5 -5s-2 -5 -5 -5s-5 2 -5 5z
M457 411l8 -5c12 3 22 11 29 21l-3 9l-9 3c-5 -2 -23 -16 -25 -18v-10z
M474 472c2 -13 6 -11 6 -22l4 -7l9 -3l7 6v4c0 11 -4 22 -11 30h-9z
" />
<path fill="#c00" d="
M185 140c0 30 25 55 55 55s55 -25 55 -55s-25 -55 -55 -55s-55 25 -55 55z
M185 300c0 30 25 55 55 55s55 -25 55 -55s-25 -55 -55 -55s-55 25 -55 55z
M195 136l7 -6c6 1 11 4 13 10c0 11 4 9 6 22l-6 8h-9c-7 -8 -11 -19 -11 -30v-4z
M195 296l7 -6c6 1 11 4 13 10c0 11 4 9 6 22l-6 8h-9c-7 -8 -11 -19 -11 -30v-4z
M201 117c7 -10 17 -18 29 -21l8 5v10l-5 5c-6 2 -10 5 -14 10l-6 3l-9 -3z
M201 277c7 -10 17 -18 29 -21l8 5v10l-5 5c-6 2 -10 5 -14 10l-6 3l-9 -3z
M219 173l6 -8l7 -1c2 1 5 1 8 1s6 0 8 -1l7 1l6 8l-3 8c-6 3 -12 4 -18 4s-12 -1 -18 -4z
M219 333l6 -8l7 -1c2 1 5 1 8 1s6 0 8 -1l7 1l6 8l-3 8c-6 3 -12 4 -18 4s-12 -1 -18 -4z
M225 140c0 -8 7 -15 15 -15s15 7 15 15s-7 15 -15 15s-15 -7 -15 -15z
M225 300c0 -8 7 -15 15 -15s15 7 15 15s-7 15 -15 15s-15 -7 -15 -15z
M235 140c0 3 2 5 5 5s5 -2 5 -5s-2 -5 -5 -5s-5 2 -5 5z
M235 300c0 3 2 5 5 5s5 -2 5 -5s-2 -5 -5 -5s-5 2 -5 5z
M242 101l8 -5c12 3 22 11 29 21l-3 9l-9 3c-5 -2 -23 -16 -25 -18v-10z
M242 261l8 -5c12 3 22 11 29 21l-3 9l-9 3c-5 -2 -23 -16 -25 -18v-10z
M259 162c2 -13 6 -11 6 -22l4 -7l9 -3l7 6v4c0 11 -4 22 -11 30h-9z
M259 322c2 -13 6 -11 6 -22l4 -7l9 -3l7 6v4c0 11 -4 22 -11 30h-9z
M345 140c0 30 25 55 55 55s55 -25 55 -55s-25 -55 -55 -55s-55 25 -55 55z
M345 300c0 30 25 55 55 55s55 -25 55 -55s-25 -55 -55 -55s-55 25 -55 55z
M355 136l7 -6c6 1 11 4 13 10c0 11 4 9 6 22l-6 8h-9c-7 -8 -11 -19 -11 -30v-4z
M355 296l7 -6c6 1 11 4 13 10c0 11 4 9 6 22l-6 8h-9c-7 -8 -11 -19 -11 -30v-4z
M361 117c7 -10 17 -18 29 -21l8 5v10l-5 5c-6 2 -10 5 -14 10l-6 3l-9 -3z
M361 277c7 -10 17 -18 29 -21l8 5v10l-5 5c-6 2 -10 5 -14 10l-6 3l-9 -3z
M379 173l6 -8l7 -1c2 1 5 1 8 1s6 0 8 -1l7 1l6 8l-3 8c-6 3 -12 4 -18 4s-12 -1 -18 -4z
M379 333l6 -8l7 -1c2 1 5 1 8 1s6 0 8 -1l7 1l6 8l-3 8c-6 3 -12 4 -18 4s-12 -1 -18 -4z
M385 140c0 -8 7 -15 15 -15s15 7 15 15s-7 15 -15 15s-15 -7 -15 -15z
M385 300c0 -8 7 -15 15 -15s15 7 15 15s-7 15 -15 15s-15 -7 -15 -15z
M395 140c0 3 2 5 5 5s5 -2 5 -5s-2 -5 -5 -5s-5 2 -5 5z
M395 300c0 3 2 5 5 5s5 -2 5 -5s-2 -5 -5 -5s-5 2 -5 5z
M402 101l8 -5c12 3 22 11 29 21l-3 9l-9 3c-5 -2 -23 -16 -25 -18v-10z
M402 261l8 -5c12 3 22 11 29 21l-3 9l-9 3c-5 -2 -23 -16 -25 -18v-10z
M419 162c2 -13 6 -11 6 -22l4 -7l9 -3l7 6v4c0 11 -4 22 -11 30h-9z
M419 322c2 -13 6 -11 6 -22l4 -7l9 -3l7 6v4c0 11 -4 22 -11 30h-9z
" />
</g>
</svg>
