<svg xmlns="http://www.w3.org/2000/svg" xmlns:xlink="http://www.w3.org/1999/xlink" version="1.1" viewBox="60 0 520 760">
<g transform="matrix(1 0 0 -1 0 760)">
<path fill="#c00"
d="M156 437c0 14 2 27 8 34c8 -5 15 -11 22 -17
c12 -11 23 -20 32 -20c8 0 74 24 80 30c-1 33 2 88 -28 90c-1 6 -4 10 -4 16c0 24 24 40 38 50c28 -11 58 -54 58 -72c0 -20 -22 -8 -28 -73l40 15c22 9 40 16 50 16c6 0 10 -3 22 -18c18 -20 38 -36 38 -54c0 -4 -4 -9 -8 -9c-10 0 -23 -3 -28 -7c-8 -12 -17 -24 -25 -34
c-11 -13 -19 -24 -19 -29c0 -16 -6 -18 -14 -18c-14 0 -18 5 -60 7c0 -16 -2 -71 -2 -80c0 -7 1 -20 2 -34c1 -16 2 -35 2 -46c0 -36 -12 -76 -22 -86c-10 8 -12 47 -12 77c0 7 0 15 1 24c0 13 1 29 1 48c0 11 0 27 -1 43c0 18 -1 37 -1 53c-8 0 -16 -3 -24 -6
c-10 -3 -21 -7 -34 -7c-7 0 -8 8 -8 15c0 9 -15 23 -32 37c-21 18 -44 38 -44 55zM230 419c18 -26 28 -44 36 -60c10 1 21 3 32 6v75c-9 -3 -18 -7 -26 -11c-14 -6 -26 -12 -34 -12c-2 0 -4 0 -8 2zM330 368c10 0 18 -1 32 -1c18 26 50 66 50 88c0 8 -8 12 -16 12
c-12 0 -46 -9 -62 -15c-2 -24 -4 -58 -4 -84z" />
</g>
</svg>
