<svg xmlns="http://www.w3.org/2000/svg" xmlns:xlink="http://www.w3.org/1999/xlink" version="1.1" viewBox="60 0 520 760">
<g transform="matrix(1 0 0 -1 0 760)">
<path fill="#009"
d="M150 140c0 35 20 65 48 80
c-28 15 -48 45 -48 80s20 65 48 80c-28 15 -48 45 -48 80s20 65 48 80c-28 15 -48 45 -48 80c0 50 40 90 90 90c35 0 65 -20 80 -48c15 28 45 48 80 48c50 0 90 -40 90 -90c0 -35 -20 -65 -48 -80c28 -15 48 -45 48 -80s-20 -65 -48 -80c28 -15 48 -45 48 -80
s-20 -65 -48 -80c28 -15 48 -45 48 -80c0 -50 -40 -90 -90 -90c-35 0 -65 20 -80 48c-15 -28 -45 -48 -80 -48c-50 0 -90 40 -90 90zM170 140c0 -39 31 -70 70 -70s70 31 70 70s-31 70 -70 70s-70 -31 -70 -70zM170 300c0 -39 31 -70 70 -70s70 31 70 70s-31 70 -70 70
s-70 -31 -70 -70zM170 460c0 -39 31 -70 70 -70s70 31 70 70s-31 70 -70 70s-70 -31 -70 -70zM170 620c0 -39 31 -70 70 -70s70 31 70 70s-31 70 -70 70s-70 -31 -70 -70zM185 140c0 30 25 55 55 55s55 -25 55 -55s-25 -55 -55 -55s-55 25 -55 55zM185 300c0 30 25 55 55 55
s55 -25 55 -55s-25 -55 -55 -55s-55 25 -55 55zM185 460c0 30 25 55 55 55s55 -25 55 -55s-25 -55 -55 -55s-55 25 -55 55zM185 620c0 30 25 55 55 55s55 -25 55 -55s-25 -55 -55 -55s-55 25 -55 55zM195 136l7 -6c6 1 11 4 13 10c0 11 4 9 6 22l-6 8h-9
c-7 -8 -11 -19 -11 -30v-4zM195 296l7 -6c6 1 11 4 13 10c0 11 4 9 6 22l-6 8h-9c-7 -8 -11 -19 -11 -30v-4zM195 456l7 -6c6 1 11 4 13 10c0 11 4 9 6 22l-6 8h-9c-7 -8 -11 -19 -11 -30v-4zM195 616l7 -6c6 1 11 4 13 10c0 11 4 9 6 22l-6 8h-9c-7 -8 -11 -19 -11 -30v-4z
M201 117c7 -10 17 -18 29 -21l8 5v10l-5 5c-6 2 -10 5 -14 10l-6 3l-9 -3zM201 277c7 -10 17 -18 29 -21l8 5v10l-5 5c-6 2 -10 5 -14 10l-6 3l-9 -3zM201 437c7 -10 17 -18 29 -21l8 5v10l-5 5c-6 2 -10 5 -14 10l-6 3l-9 -3zM201 597c7 -10 17 -18 29 -21l8 5v10l-5 5
c-6 2 -10 5 -14 10l-6 3l-9 -3zM219 173l6 -8l7 -1c2 1 5 1 8 1s6 0 8 -1l7 1l6 8l-3 8c-6 3 -12 4 -18 4s-12 -1 -18 -4zM219 333l6 -8l7 -1c2 1 5 1 8 1s6 0 8 -1l7 1l6 8l-3 8c-6 3 -12 4 -18 4s-12 -1 -18 -4zM219 493l6 -8l7 -1c2 1 5 1 8 1s6 0 8 -1l7 1l6 8l-3 8
c-6 3 -12 4 -18 4s-12 -1 -18 -4zM219 653l6 -8l7 -1c2 1 5 1 8 1s6 0 8 -1l7 1l6 8l-3 8c-6 3 -12 4 -18 4s-12 -1 -18 -4zM225 140c0 -8 7 -15 15 -15s15 7 15 15s-7 15 -15 15s-15 -7 -15 -15zM225 300c0 -8 7 -15 15 -15s15 7 15 15s-7 15 -15 15s-15 -7 -15 -15z
M225 460c0 -8 7 -15 15 -15s15 7 15 15s-7 15 -15 15s-15 -7 -15 -15zM225 620c0 -8 7 -15 15 -15s15 7 15 15s-7 15 -15 15s-15 -7 -15 -15zM235 140c0 3 2 5 5 5s5 -2 5 -5s-2 -5 -5 -5s-5 2 -5 5zM235 300c0 3 2 5 5 5s5 -2 5 -5s-2 -5 -5 -5s-5 2 -5 5zM235 460
c0 3 2 5 5 5s5 -2 5 -5s-2 -5 -5 -5s-5 2 -5 5zM235 620c0 3 2 5 5 5s5 -2 5 -5s-2 -5 -5 -5s-5 2 -5 5zM242 101l8 -5c12 3 22 11 29 21l-3 9l-9 3c-5 -2 -23 -16 -25 -18v-10zM242 261l8 -5c12 3 22 11 29 21l-3 9l-9 3c-5 -2 -23 -16 -25 -18v-10zM242 421l8 -5
c12 3 22 11 29 21l-3 9l-9 3c-5 -2 -23 -16 -25 -18v-10zM242 581l8 -5c12 3 22 11 29 21l-3 9l-9 3c-5 -2 -23 -16 -25 -18v-10zM259 162c2 -13 6 -11 6 -22l4 -7l9 -3l7 6v4c0 11 -4 22 -11 30h-9zM259 322c2 -13 6 -11 6 -22l4 -7l9 -3l7 6v4c0 11 -4 22 -11 30h-9z
M259 482c2 -13 6 -11 6 -22l4 -7l9 -3l7 6v4c0 11 -4 22 -11 30h-9zM259 642c2 -13 6 -11 6 -22l4 -7l9 -3l7 6v4c0 11 -4 22 -11 30h-9zM281 220c17 -9 30 -22 39 -38c9 16 22 29 39 38c-17 9 -30 22 -39 38c-9 -16 -22 -29 -39 -38zM281 380c17 -9 30 -22 39 -38
c9 16 22 29 39 38c-17 9 -30 22 -39 38c-9 -16 -22 -29 -39 -38zM281 540c17 -9 30 -22 39 -38c9 16 22 29 39 38c-17 9 -30 22 -39 38c-9 -16 -22 -29 -39 -38zM330 140c0 -39 31 -70 70 -70s70 31 70 70s-31 70 -70 70s-70 -31 -70 -70zM330 300c0 -39 31 -70 70 -70
s70 31 70 70s-31 70 -70 70s-70 -31 -70 -70zM330 460c0 -39 31 -70 70 -70s70 31 70 70s-31 70 -70 70s-70 -31 -70 -70zM330 620c0 -39 31 -70 70 -70s70 31 70 70s-31 70 -70 70s-70 -31 -70 -70zM345 140c0 30 25 55 55 55s55 -25 55 -55s-25 -55 -55 -55s-55 25 -55 55
zM345 300c0 30 25 55 55 55s55 -25 55 -55s-25 -55 -55 -55s-55 25 -55 55zM345 460c0 30 25 55 55 55s55 -25 55 -55s-25 -55 -55 -55s-55 25 -55 55zM345 620c0 30 25 55 55 55s55 -25 55 -55s-25 -55 -55 -55s-55 25 -55 55zM355 136l7 -6c6 1 11 4 13 10c0 11 4 9 6 22
l-6 8h-9c-7 -8 -11 -19 -11 -30v-4zM355 296l7 -6c6 1 11 4 13 10c0 11 4 9 6 22l-6 8h-9c-7 -8 -11 -19 -11 -30v-4zM355 456l7 -6c6 1 11 4 13 10c0 11 4 9 6 22l-6 8h-9c-7 -8 -11 -19 -11 -30v-4zM355 616l7 -6c6 1 11 4 13 10c0 11 4 9 6 22l-6 8h-9
c-7 -8 -11 -19 -11 -30v-4zM361 117c7 -10 17 -18 29 -21l8 5v10l-5 5c-6 2 -10 5 -14 10l-6 3l-9 -3zM361 277c7 -10 17 -18 29 -21l8 5v10l-5 5c-6 2 -10 5 -14 10l-6 3l-9 -3zM361 437c7 -10 17 -18 29 -21l8 5v10l-5 5c-6 2 -10 5 -14 10l-6 3l-9 -3zM361 597
c7 -10 17 -18 29 -21l8 5v10l-5 5c-6 2 -10 5 -14 10l-6 3l-9 -3zM379 173l6 -8l7 -1c2 1 5 1 8 1s6 0 8 -1l7 1l6 8l-3 8c-6 3 -12 4 -18 4s-12 -1 -18 -4zM379 333l6 -8l7 -1c2 1 5 1 8 1s6 0 8 -1l7 1l6 8l-3 8c-6 3 -12 4 -18 4s-12 -1 -18 -4zM379 493l6 -8l7 -1
c2 1 5 1 8 1s6 0 8 -1l7 1l6 8l-3 8c-6 3 -12 4 -18 4s-12 -1 -18 -4zM379 653l6 -8l7 -1c2 1 5 1 8 1s6 0 8 -1l7 1l6 8l-3 8c-6 3 -12 4 -18 4s-12 -1 -18 -4zM385 140c0 -8 7 -15 15 -15s15 7 15 15s-7 15 -15 15s-15 -7 -15 -15zM385 300c0 -8 7 -15 15 -15s15 7 15 15
s-7 15 -15 15s-15 -7 -15 -15zM385 460c0 -8 7 -15 15 -15s15 7 15 15s-7 15 -15 15s-15 -7 -15 -15zM385 620c0 -8 7 -15 15 -15s15 7 15 15s-7 15 -15 15s-15 -7 -15 -15zM395 140c0 3 2 5 5 5s5 -2 5 -5s-2 -5 -5 -5s-5 2 -5 5zM395 300c0 3 2 5 5 5s5 -2 5 -5
s-2 -5 -5 -5s-5 2 -5 5zM395 460c0 3 2 5 5 5s5 -2 5 -5s-2 -5 -5 -5s-5 2 -5 5zM395 620c0 3 2 5 5 5s5 -2 5 -5s-2 -5 -5 -5s-5 2 -5 5zM402 101l8 -5c12 3 22 11 29 21l-3 9l-9 3c-5 -2 -23 -16 -25 -18v-10zM402 261l8 -5c12 3 22 11 29 21l-3 9l-9 3
c-5 -2 -23 -16 -25 -18v-10zM402 421l8 -5c12 3 22 11 29 21l-3 9l-9 3c-5 -2 -23 -16 -25 -18v-10zM402 581l8 -5c12 3 22 11 29 21l-3 9l-9 3c-5 -2 -23 -16 -25 -18v-10zM419 162c2 -13 6 -11 6 -22l4 -7l9 -3l7 6v4c0 11 -4 22 -11 30h-9zM419 322c2 -13 6 -11 6 -22
l4 -7l9 -3l7 6v4c0 11 -4 22 -11 30h-9zM419 482c2 -13 6 -11 6 -22l4 -7l9 -3l7 6v4c0 11 -4 22 -11 30h-9zM419 642c2 -13 6 -11 6 -22l4 -7l9 -3l7 6v4c0 11 -4 22 -11 30h-9z" />
</g>
</svg>
