<svg xmlns="http://www.w3.org/2000/svg" xmlns:xlink="http://www.w3.org/1999/xlink" version="1.1" viewBox="60 0 520 760">
<g transform="matrix(1 0 0 -1 0 760)">
<path fill="#060"
d="M104 70c0 10 7 16 15 21c6 6 13 11 13 19v47
c0 11 -25 24 -25 43s25 32 25 43v48c0 8 -7 13 -13 19c-8 5 -15 11 -15 21c0 16 16 23 23 23c13 0 15 14 38 14s25 -14 38 -14c7 0 23 -7 23 -23c0 -3 -2 -6 -3 -9l47 -55c7 -9 23 -4 31 -14c10 -12 2 -25 10 -34l8 -9h2l9 9c7 9 -1 22 9 34c8 10 24 5 31 14l46 54
c-1 3 -2 7 -2 10c0 16 16 23 23 23c13 0 15 14 38 14s25 -14 38 -14c7 0 23 -7 23 -23c0 -10 -7 -16 -15 -21c-6 -6 -13 -11 -13 -19v-48c0 -11 25 -24 25 -43s-25 -32 -25 -43v-47c0 -8 7 -13 13 -19c8 -5 15 -11 15 -21c0 -14 -12 -23 -26 -23c-16 0 -17 9 -35 9
s-19 -9 -35 -9c-14 0 -26 9 -26 23c0 10 7 16 15 21c6 6 13 11 13 19v47c0 11 -25 24 -25 43s25 32 25 43v21l-28 -35c-8 -8 0 -21 -10 -33c-8 -10 -24 -5 -30 -14l-16 -17c0 -14 23 -17 23 -34c0 -14 -13 -25 -26 -25c-16 0 -16 12 -35 12s-19 -12 -35 -12
c-13 0 -26 11 -26 25c0 17 23 20 23 34l-15 17c-7 9 -23 4 -31 14c-10 12 -2 25 -9 33l-29 35v-21c0 -11 25 -24 25 -43s-25 -32 -25 -43v-47c0 -8 7 -13 13 -19c8 -5 15 -11 15 -21c0 -14 -12 -23 -26 -23c-16 0 -17 9 -35 9s-19 -9 -35 -9c-14 0 -26 9 -26 23zM104 425
c0 10 7 16 15 21c6 6 13 11 13 19v47c0 11 -25 24 -25 43s25 32 25 43v48c0 8 -7 13 -13 19c-8 5 -15 11 -15 21c0 16 16 23 23 23c13 0 15 14 38 14s25 -14 38 -14c7 0 23 -7 23 -23c0 -10 -7 -16 -15 -21c-6 -6 -13 -11 -13 -19v-48c0 -11 25 -24 25 -43s-25 -32 -25 -43
v-20l28 35c8 8 0 21 10 33c8 10 24 5 30 14l16 17c0 14 -23 17 -23 34c0 14 13 25 26 25c16 0 16 -12 35 -12s19 12 35 12c13 0 26 -11 26 -25c0 -17 -23 -20 -23 -34l15 -17c7 -9 23 -4 31 -14c10 -12 2 -25 9 -33l29 -35v20c0 11 -25 24 -25 43s25 32 25 43v48
c0 8 -7 13 -13 19c-8 5 -15 11 -15 21c0 16 16 23 23 23c13 0 15 14 38 14s25 -14 38 -14c7 0 23 -7 23 -23c0 -10 -7 -16 -15 -21c-6 -6 -13 -11 -13 -19v-48c0 -11 25 -24 25 -43s-25 -32 -25 -43v-47c0 -8 7 -13 13 -19c8 -5 15 -11 15 -21c0 -14 -12 -23 -26 -23
c-16 0 -17 9 -35 9s-19 -9 -35 -9c-14 0 -26 9 -26 23c0 6 3 8 3 9l-47 55c-7 9 -23 4 -31 14c-10 12 -3 25 -10 34l-9 10l-10 -10c-7 -9 1 -22 -9 -34c-8 -10 -24 -5 -31 -14l-47 -55c3 -5 3 -6 3 -9c0 -14 -12 -23 -26 -23c-16 0 -17 9 -35 9s-19 -9 -35 -9
c-14 0 -26 9 -26 23zM132 188c0 -5 4 -8 10 -8h46c6 0 10 4 10 8s-4 7 -10 7h-46c-6 0 -10 -3 -10 -7zM132 213c0 -5 4 -8 10 -8h46c6 0 10 4 10 8s-4 7 -10 7h-46c-6 0 -10 -3 -10 -7zM132 543c0 -5 4 -8 10 -8h46c6 0 10 4 10 8s-4 7 -10 7h-46c-6 0 -10 -3 -10 -7z
M132 568c0 -5 4 -8 10 -8h46c6 0 10 4 10 8s-4 7 -10 7h-46c-6 0 -10 -3 -10 -7zM140 330c0 -7 4 -14 10 -18v-82h30v82c6 4 10 11 10 18c0 12 -11 22 -25 22s-25 -10 -25 -22zM140 685c0 -7 4 -14 10 -18v-82h30v82c6 4 10 11 10 18c0 12 -11 22 -25 22s-25 -10 -25 -22z
M150 82c0 -8 5 -13 15 -13s15 5 15 13v88h-30v-88zM150 437c0 -8 5 -13 15 -13s15 5 15 13v88h-30v-88zM200 288l48 -57l17 14l-53 63c-6 -5 -12 -10 -12 -17v-3zM200 465c0 -7 6 -12 12 -17l53 63l-17 14l-48 -57v-3zM248 214c0 -3 3 -7 7 -7c2 0 5 1 8 3l20 17
c3 3 4 6 4 8c0 5 -3 7 -6 7s-6 -1 -8 -3l-20 -17c-3 -3 -5 -5 -5 -8zM248 542c0 -3 2 -5 5 -8l20 -17c2 -2 5 -3 8 -3s6 2 6 7c0 2 -1 5 -4 8l-20 17c-3 2 -6 3 -8 3c-4 0 -7 -4 -7 -7zM271 204l38 -45v-22c0 -5 3 -10 11 -10s11 5 11 10v22l38 45l-16 14l-33 -40l-33 40z
M271 552l16 -14l33 40l33 -40l16 14l-38 45v22c0 5 -3 10 -11 10s-11 -5 -11 -10v-22zM353 235c0 -2 1 -5 4 -8l20 -17c3 -2 6 -3 8 -3c4 0 7 4 7 7s-2 5 -5 8l-20 17c-2 2 -5 3 -8 3s-6 -2 -6 -7zM353 521c0 -5 3 -7 6 -7s6 1 8 3l20 17c3 3 5 5 5 8s-3 7 -7 7
c-2 0 -5 -1 -8 -3l-20 -17c-3 -3 -4 -6 -4 -8zM375 245l17 -14l48 57v3c0 7 -6 12 -12 17zM375 511l53 -63c6 5 12 10 12 17v3l-48 57zM442 188c0 -5 4 -8 10 -8h46c6 0 10 4 10 8s-4 7 -10 7h-46c-6 0 -10 -3 -10 -7zM442 213c0 -5 4 -8 10 -8h46c6 0 10 4 10 8s-4 7 -10 7
h-46c-6 0 -10 -3 -10 -7zM442 543c0 -5 4 -8 10 -8h46c6 0 10 4 10 8s-4 7 -10 7h-46c-6 0 -10 -3 -10 -7zM442 568c0 -5 4 -8 10 -8h46c6 0 10 4 10 8s-4 7 -10 7h-46c-6 0 -10 -3 -10 -7zM450 330c0 -7 4 -14 10 -18v-82h30v82c6 4 10 11 10 18c0 12 -11 22 -25 22
s-25 -10 -25 -22zM450 685c0 -7 4 -14 10 -18v-82h30v82c6 4 10 11 10 18c0 12 -11 22 -25 22s-25 -10 -25 -22zM460 82c0 -8 5 -13 15 -13s15 5 15 13v88h-30v-88zM460 437c0 -8 5 -13 15 -13s15 5 15 13v88h-30v-88z" />
</g>
</svg>
