<svg xmlns="http://www.w3.org/2000/svg" xmlns:xlink="http://www.w3.org/1999/xlink" version="1.1" viewBox="60 0 520 760">
<g transform="matrix(1 0 0 -1 0 760)">
<path fill="#000" d="
M153 479c2 3 9 7 19 12c24 12 64 32 92 76c-5 10 -23 14 -23 25c0 9 18 8 23 22c-1 14 -5 26 -5 35c0 7 3 15 7 18c35 0 41 -14 46 -24c2 0 6 -1 9 -1c3 6 4 14 9 14c6 0 7 -2 13 -2c11 0 23 7 35 14c10 6 19 12 26 12c10 0 13 -18 13 -24s-10 -16 -19 -23c-1 -1 -3 -1 -4 -1c-3 0 -6 2 -11 2c-18 0 -28 -2 -40 -7c-5 -19 -13 -51 -13 -82c0 -8 1 -23 4 -27c10 -13 40 -29 57 -29c16 0 22 5 25 7c1 6 1 12 1 19c0 10 -1 19 -2 29c-1 9 -2 18 -2 28c9 0 16 -21 23 -38c4 -11 7 -20 10 -22c14 -4 40 -16 40 -33c0 -22 -46 -39 -77 -39c-29 0 -50 3 -73 21c-15 12 -29 24 -29 50c0 71 11 71 11 89c0 5 -1 6 -2 10c-9 0 -10 0 -13 -25c-4 -48 -117 -110 -141 -110c-4 0 -6 1 -9 4z
" />
<path fill="#c00" d="
M158 153c0 2 1 4 1 7c9 0 17 -1 25 -2s16 -2 25 -2h4c-1 9 -3 18 -5 26c-3 15 -6 28 -6 35c0 2 1 3 4 6c18 -3 21 -17 25 -33c3 -11 6 -22 12 -33c16 0 26 4 38 8l1 29c-5 0 -11 -3 -16 -5c-4 -6 -6 -13 -13 -20c-7 4 -15 30 -15 58c0 14 0 38 4 55c37 6 66 14 89 20c21 6 37 10 48 10c13 0 21 -4 21 -14s-14 -33 -14 -80c0 -9 1 -25 2 -34c26 -2 110 -16 110 -61c0 -23 -20 -35 -46 -35c-5 0 -12 -3 -19 -5c-10 -4 -21 -8 -30 -8c-19 0 -80 26 -96 36c-9 -3 -13 -11 -19 -11c-13 0 -22 5 -32 8c-1 -9 0 -27 -10 -27c-11 0 -21 39 -25 49h-12c-23 0 -51 8 -51 23z
M162 318c5 3 15 11 27 11c10 0 19 -2 29 -5c11 -2 22 -5 36 -5c25 0 34 3 34 22c0 6 -9 3 -13 9c0 8 6 9 12 19c9 13 15 29 25 29c4 0 7 -5 7 -10c0 -19 -7 -34 -11 -52c2 -4 4 -5 7 -5c8 0 29 43 29 56c0 10 -9 11 -15 20c3 7 18 22 35 28c11 -4 20 -20 20 -37c0 -10 -4 -17 -8 -24c-5 -7 -9 -14 -10 -26c8 1 15 2 22 4c16 3 33 6 58 6c28 0 34 -3 37 -7c-4 -8 -9 -15 -22 -21c-13 1 -28 1 -54 1c-30 0 -64 -10 -95 -19c-27 -8 -53 -16 -72 -16c-21 0 -64 5 -78 22z
M247 136l7 -16c14 3 23 7 32 11c-4 5 -5 11 -5 16z
M262 224c0 -5 1 -9 1 -14c5 0 12 1 19 2v23c-24 -4 -20 0 -20 -11z
M262 250l4 -1c6 0 12 2 18 3c0 7 1 14 2 20l-24 -4v-18z
M304 217c14 1 27 5 40 9c0 6 0 15 1 23c-10 -3 -24 -7 -41 -10v-22z
M304 256c19 3 29 6 42 8c0 9 1 15 1 23c-18 -3 -26 -8 -40 -10c-1 -10 -3 -14 -3 -21z
M306 172c15 3 26 6 39 11c0 11 0 17 -1 26c-9 -3 -20 -5 -38 -10v-27z
M307 154c0 -8 2 -16 5 -16c9 0 17 6 35 11c-1 5 -2 11 -1 16c-13 -2 -26 -7 -39 -11z
M322 120c6 -8 33 -19 45 -19c14 0 20 11 34 17c17 7 49 -1 49 24c0 12 -40 23 -59 24c0 -4 3 -13 3 -21c0 -4 -2 -9 -3 -11c-9 -6 -26 -13 -37 -13c-2 3 -4 10 -6 13c-11 -3 -14 -9 -26 -14z
" />
</g>
</svg>
