<svg xmlns="http://www.w3.org/2000/svg" xmlns:xlink="http://www.w3.org/1999/xlink" version="1.1" viewBox="60 0 520 760">
<g transform="matrix(1 0 0 -1 0 760)">
<path fill="#009" d="
M100 155c0 44 36 80 80 80c30 0 56 -17 70 -41c14 24 40 41 70 41s56 -17 70 -41c14 24 40 41 70 41c44 0 80 -36 80 -80s-36 -80 -80 -80c-30 0 -56 17 -70 41c-14 -24 -40 -41 -70 -41s-56 17 -70 41c-14 -24 -40 -41 -70 -41c-44 0 -80 36 -80 80z
M100 380c0 44 36 80 80 80c30 0 56 -17 70 -41c14 24 40 41 70 41s56 -17 70 -41c14 24 40 41 70 41c44 0 80 -36 80 -80s-36 -80 -80 -80c-30 0 -56 17 -70 41c-14 -24 -40 -41 -70 -41s-56 17 -70 41c-14 -24 -40 -41 -70 -41c-44 0 -80 36 -80 80z
M100 605c0 44 36 80 80 80c30 0 56 -17 70 -41c14 24 40 41 70 41s56 -17 70 -41c14 24 40 41 70 41c44 0 80 -36 80 -80s-36 -80 -80 -80c-30 0 -56 17 -70 41c-14 -24 -40 -41 -70 -41s-56 17 -70 41c-14 -24 -40 -41 -70 -41c-44 0 -80 36 -80 80z
M120 155c0 -33 27 -60 60 -60s60 27 60 60s-27 60 -60 60s-60 -27 -60 -60z
M120 380c0 -33 27 -60 60 -60s60 27 60 60s-27 60 -60 60s-60 -27 -60 -60z
M120 605c0 -33 27 -60 60 -60s60 27 60 60s-27 60 -60 60s-60 -27 -60 -60z
M130 155c0 28 22 50 50 50s50 -22 50 -50s-22 -50 -50 -50s-50 22 -50 50z
M130 605c0 28 22 50 50 50s50 -22 50 -50s-22 -50 -50 -50s-50 22 -50 50z
M135 152l7 -7c6 1 10 5 13 11c0 6 2 11 6 15c0 7 -3 11 -6 14l-9 -1c-7 -8 -11 -18 -11 -29v-3z
M135 602l7 -7c6 1 10 5 13 11c0 6 2 11 6 15c0 7 -3 11 -6 14l-9 -1c-7 -8 -11 -18 -11 -29v-3z
M142 131c6 -9 16 -17 27 -19l9 4v8l-4 7c-6 1 -12 5 -15 11l-8 2l-7 -3z
M142 581c6 -9 16 -17 27 -19l9 4v8l-4 7c-6 1 -12 5 -15 11l-8 2l-7 -3z
M159 188c2 -5 6 -9 12 -10c3 1 6 2 9 2s6 -1 9 -2c6 1 10 5 12 10l-4 9c-5 2 -11 3 -17 3s-12 -1 -17 -3z
M159 638c2 -5 6 -9 12 -10c3 1 6 2 9 2s6 -1 9 -2c6 1 10 5 12 10l-4 9c-5 2 -11 3 -17 3s-12 -1 -17 -3z
M160 155c0 -11 9 -20 20 -20s20 9 20 20s-9 20 -20 20s-20 -9 -20 -20z
M160 605c0 -11 9 -20 20 -20s20 9 20 20s-9 20 -20 20s-20 -9 -20 -20z
M170 155c0 6 4 10 10 10s10 -4 10 -10s-4 -10 -10 -10s-10 4 -10 10z
M170 605c0 6 4 10 10 10s10 -4 10 -10s-4 -10 -10 -10s-10 4 -10 10z
M182 116l9 -4c11 2 21 10 27 19l-2 10l-7 3l-8 -2c-3 -6 -9 -10 -15 -11l-4 -7v-8z
M182 566l9 -4c11 2 21 10 27 19l-2 10l-7 3l-8 -2c-3 -6 -9 -10 -15 -11l-4 -7v-8z
M199 171c4 -4 6 -9 6 -15c3 -6 7 -10 13 -11l7 7v3c0 11 -4 21 -11 29l-9 1c-3 -3 -6 -7 -6 -14z
M199 621c4 -4 6 -9 6 -15c3 -6 7 -10 13 -11l7 7v3c0 11 -4 21 -11 29l-9 1c-3 -3 -6 -7 -6 -14z
M260 155c0 -33 27 -60 60 -60s60 27 60 60s-27 60 -60 60s-60 -27 -60 -60z
M260 380c0 -33 27 -60 60 -60s60 27 60 60s-27 60 -60 60s-60 -27 -60 -60z
M260 605c0 -33 27 -60 60 -60s60 27 60 60s-27 60 -60 60s-60 -27 -60 -60z
M270 155c0 28 22 50 50 50s50 -22 50 -50s-22 -50 -50 -50s-50 22 -50 50z
M270 605c0 28 22 50 50 50s50 -22 50 -50s-22 -50 -50 -50s-50 22 -50 50z
M275 152l7 -7c6 1 10 5 13 11c0 6 2 11 6 15c0 7 -3 11 -6 14l-9 -1c-7 -8 -11 -18 -11 -29v-3z
M275 602l7 -7c6 1 10 5 13 11c0 6 2 11 6 15c0 7 -3 11 -6 14l-9 -1c-7 -8 -11 -18 -11 -29v-3z
M282 131c6 -9 16 -17 27 -19l9 4v8l-4 7c-6 1 -12 5 -15 11l-8 2l-7 -3z
M282 581c6 -9 16 -17 27 -19l9 4v8l-4 7c-6 1 -12 5 -15 11l-8 2l-7 -3z
M299 188c2 -5 6 -9 12 -10c3 1 6 2 9 2s6 -1 9 -2c6 1 10 5 12 10l-4 9c-5 2 -11 3 -17 3s-12 -1 -17 -3z
M299 638c2 -5 6 -9 12 -10c3 1 6 2 9 2s6 -1 9 -2c6 1 10 5 12 10l-4 9c-5 2 -11 3 -17 3s-12 -1 -17 -3z
M300 155c0 -11 9 -20 20 -20s20 9 20 20s-9 20 -20 20s-20 -9 -20 -20z
M300 605c0 -11 9 -20 20 -20s20 9 20 20s-9 20 -20 20s-20 -9 -20 -20z
M310 155c0 6 4 10 10 10s10 -4 10 -10s-4 -10 -10 -10s-10 4 -10 10z
M310 605c0 6 4 10 10 10s10 -4 10 -10s-4 -10 -10 -10s-10 4 -10 10z
M322 116l9 -4c11 2 21 10 27 19l-2 10l-7 3l-8 -2c-3 -6 -9 -10 -15 -11l-4 -7v-8z
M322 566l9 -4c11 2 21 10 27 19l-2 10l-7 3l-8 -2c-3 -6 -9 -10 -15 -11l-4 -7v-8z
M339 171c4 -4 6 -9 6 -15c3 -6 7 -10 13 -11l7 7v3c0 11 -4 21 -11 29l-9 1c-3 -3 -6 -7 -6 -14z
M339 621c4 -4 6 -9 6 -15c3 -6 7 -10 13 -11l7 7v3c0 11 -4 21 -11 29l-9 1c-3 -3 -6 -7 -6 -14z
M400 155c0 -33 27 -60 60 -60s60 27 60 60s-27 60 -60 60s-60 -27 -60 -60z
M400 380c0 -33 27 -60 60 -60s60 27 60 60s-27 60 -60 60s-60 -27 -60 -60z
M400 605c0 -33 27 -60 60 -60s60 27 60 60s-27 60 -60 60s-60 -27 -60 -60z
M410 155c0 28 22 50 50 50s50 -22 50 -50s-22 -50 -50 -50s-50 22 -50 50z
M410 605c0 28 22 50 50 50s50 -22 50 -50s-22 -50 -50 -50s-50 22 -50 50z
M415 152l7 -7c6 1 10 5 13 11c0 6 2 11 6 15c0 7 -3 11 -6 14l-9 -1c-7 -8 -11 -18 -11 -29v-3z
M415 602l7 -7c6 1 10 5 13 11c0 6 2 11 6 15c0 7 -3 11 -6 14l-9 -1c-7 -8 -11 -18 -11 -29v-3z
M422 131c6 -9 16 -17 27 -19l9 4v8l-4 7c-6 1 -12 5 -15 11l-8 2l-7 -3z
M422 581c6 -9 16 -17 27 -19l9 4v8l-4 7c-6 1 -12 5 -15 11l-8 2l-7 -3z
M439 188c2 -5 6 -9 12 -10c3 1 6 2 9 2s6 -1 9 -2c6 1 10 5 12 10l-4 9c-5 2 -11 3 -17 3s-12 -1 -17 -3z
M439 638c2 -5 6 -9 12 -10c3 1 6 2 9 2s6 -1 9 -2c6 1 10 5 12 10l-4 9c-5 2 -11 3 -17 3s-12 -1 -17 -3z
M440 155c0 -11 9 -20 20 -20s20 9 20 20s-9 20 -20 20s-20 -9 -20 -20z
M440 605c0 -11 9 -20 20 -20s20 9 20 20s-9 20 -20 20s-20 -9 -20 -20z
M450 155c0 6 4 10 10 10s10 -4 10 -10s-4 -10 -10 -10s-10 4 -10 10z
M450 605c0 6 4 10 10 10s10 -4 10 -10s-4 -10 -10 -10s-10 4 -10 10z
M462 116l9 -4c11 2 21 10 27 19l-2 10l-7 3l-8 -2c-3 -6 -9 -10 -15 -11l-4 -7v-8z
M462 566l9 -4c11 2 21 10 27 19l-2 10l-7 3l-8 -2c-3 -6 -9 -10 -15 -11l-4 -7v-8z
M479 171c4 -4 6 -9 6 -15c3 -6 7 -10 13 -11l7 7v3c0 11 -4 21 -11 29l-9 1c-3 -3 -6 -7 -6 -14z
M479 621c4 -4 6 -9 6 -15c3 -6 7 -10 13 -11l7 7v3c0 11 -4 21 -11 29l-9 1c-3 -3 -6 -7 -6 -14z
" />
<path fill="#c00" d="
M130 380c0 28 22 50 50 50s50 -22 50 -50s-22 -50 -50 -50s-50 22 -50 50z
M135 377l7 -7c6 1 10 5 13 11c0 6 2 11 6 15c0 7 -3 11 -6 14l-9 -1c-7 -8 -11 -18 -11 -29v-3z
M142 356c6 -9 16 -17 27 -19l9 4v8l-4 7c-6 1 -12 5 -15 11l-8 2l-7 -3z
M159 413c2 -5 6 -9 12 -10c3 1 6 2 9 2s6 -1 9 -2c6 1 10 5 12 10l-4 9c-5 2 -11 3 -17 3s-12 -1 -17 -3z
M160 380c0 -11 9 -20 20 -20s20 9 20 20s-9 20 -20 20s-20 -9 -20 -20z
M170 380c0 6 4 10 10 10s10 -4 10 -10s-4 -10 -10 -10s-10 4 -10 10z
M182 341l9 -4c11 2 21 10 27 19l-2 10l-7 3l-8 -2c-3 -6 -9 -10 -15 -11l-4 -7v-8z
M199 396c4 -4 6 -9 6 -15c3 -6 7 -10 13 -11l7 7v3c0 11 -4 21 -11 29l-9 1c-3 -3 -6 -7 -6 -14z
M270 380c0 28 22 50 50 50s50 -22 50 -50s-22 -50 -50 -50s-50 22 -50 50z
M275 377l7 -7c6 1 10 5 13 11c0 6 2 11 6 15c0 7 -3 11 -6 14l-9 -1c-7 -8 -11 -18 -11 -29v-3z
M282 356c6 -9 16 -17 27 -19l9 4v8l-4 7c-6 1 -12 5 -15 11l-8 2l-7 -3z
M299 413c2 -5 6 -9 12 -10c3 1 6 2 9 2s6 -1 9 -2c6 1 10 5 12 10l-4 9c-5 2 -11 3 -17 3s-12 -1 -17 -3z
M300 380c0 -11 9 -20 20 -20s20 9 20 20s-9 20 -20 20s-20 -9 -20 -20z
M310 380c0 6 4 10 10 10s10 -4 10 -10s-4 -10 -10 -10s-10 4 -10 10z
M322 341l9 -4c11 2 21 10 27 19l-2 10l-7 3l-8 -2c-3 -6 -9 -10 -15 -11l-4 -7v-8z
M339 396c4 -4 6 -9 6 -15c3 -6 7 -10 13 -11l7 7v3c0 11 -4 21 -11 29l-9 1c-3 -3 -6 -7 -6 -14z
M410 380c0 28 22 50 50 50s50 -22 50 -50s-22 -50 -50 -50s-50 22 -50 50z
M415 377l7 -7c6 1 10 5 13 11c0 6 2 11 6 15c0 7 -3 11 -6 14l-9 -1c-7 -8 -11 -18 -11 -29v-3z
M422 356c6 -9 16 -17 27 -19l9 4v8l-4 7c-6 1 -12 5 -15 11l-8 2l-7 -3z
M439 413c2 -5 6 -9 12 -10c3 1 6 2 9 2s6 -1 9 -2c6 1 10 5 12 10l-4 9c-5 2 -11 3 -17 3s-12 -1 -17 -3z
M440 380c0 -11 9 -20 20 -20s20 9 20 20s-9 20 -20 20s-20 -9 -20 -20z
M450 380c0 6 4 10 10 10s10 -4 10 -10s-4 -10 -10 -10s-10 4 -10 10z
M462 341l9 -4c11 2 21 10 27 19l-2 10l-7 3l-8 -2c-3 -6 -9 -10 -15 -11l-4 -7v-8z
M479 396c4 -4 6 -9 6 -15c3 -6 7 -10 13 -11l7 7v3c0 11 -4 21 -11 29l-9 1c-3 -3 -6 -7 -6 -14z
" />
</g>
</svg>
